<?xml version="1.0" encoding="utf-8"?>
<svg viewBox="0 0 288 225" width="288px" height="225px" xmlns="http://www.w3.org/2000/svg" xmlns:xlink="http://www.w3.org/1999/xlink">
  <defs>
    <linearGradient id="c4984e62-c3a2-4d63-a7f1-72d003cbf332" x1="337.02" y1="284.7" x2="337.02" y2="157.05" gradientUnits="userSpaceOnUse">
      <stop offset="0" stop-color="gray" stop-opacity="0.25"/>
      <stop offset="0.54" stop-color="gray" stop-opacity="0.12"/>
      <stop offset="1" stop-color="gray" stop-opacity="0.1"/>
    </linearGradient>
    <linearGradient id="ae1c94bd-8073-45d7-9d65-5e742daca578" x1="277.82" y1="250.69" x2="277.82" y2="249.92" xlink:href="#c4984e62-c3a2-4d63-a7f1-72d003cbf332"/>
    <linearGradient id="aa3e344a-b185-47a1-8d72-ce117b4596cd" x1="1022.23" y1="742.95" x2="1022.23" y2="530.74" xlink:href="#c4984e62-c3a2-4d63-a7f1-72d003cbf332"/>
    <linearGradient id="019be7ee-c174-4831-83df-34be516e09e3" x1="477.63" y1="628.29" x2="583.5" y2="628.29" xlink:href="#c4984e62-c3a2-4d63-a7f1-72d003cbf332"/>
  </defs>
  <g opacity="0.5" transform="matrix(0.324665, 0, 0, 0.324665, -1.095189, 34.683758)" style="">
    <path d="M353.32,212.24c1-4.57,1.57-8.3,1.16-10.18l-.41.06.63-.28,1.7-1.57.05,0,1.4-1.29a19.31,19.31,0,0,0,27.94-8.82c1.69,1,3,1.43,3.22.55a42.78,42.78,0,0,0,2.08-12.39,20.46,20.46,0,0,0-.47-4.45c-2.13-9.49-11.86-15.85-21.54-16.75-7.43-.69-15.55,1.62-20.05,7.57-3.9,5.16-11.57,8.62-15,14.1-2.77,4.42-1.91,10.35-3.22,15.44a45.57,45.57,0,0,0-4.1,3,29.19,29.19,0,0,0-7.93,7.86,112.53,112.53,0,0,0-9.26,12.42c-14.86,22.83-23.86,30.25-28.93,32.35l42.62.27a107.59,107.59,0,0,0,29,34.48l.26-.14.18.15,7.06-3.91a156.05,156.05,0,0,1-16.56-35.25c1-2.8,2.29-6.6,3.67-10.82,9.82,13.22,24.07,27.66,43.48,36.48l3.15-5.6S368.36,243.66,353.32,212.24Z" transform="translate(-137.5 -157.05)" fill="url(#c4984e62-c3a2-4d63-a7f1-72d003cbf332)"/>
    <path d="M280.61,250l-5.57,0S276.57,251.62,280.61,250Z" transform="translate(-137.5 -157.05)" fill="url(#ae1c94bd-8073-45d7-9d65-5e742daca578)"/>
  </g>
  <path d="M 65.5 58.4 C 68.6 62.5 73 67.4 79.3 70.3 L 80.2 68.7 C 80.2 68.7 69.1 58.9 65.9 46.4 L 65.5 46.6 C 62.9 49 62.9 54.4 65.5 58.4 Z" fill="#4d8af0" style=""/>
  <path d="M 65.5 58.4 C 68.6 62.5 73 67.4 79.3 70.3 L 80.2 68.7 C 80.2 68.7 69.1 58.9 65.9 46.4 L 65.5 46.6 C 62.9 49 62.9 54.4 65.5 58.4 Z" opacity="0.05" style=""/>
  <polygon points="67 44.8 64.8 46.1 62.5 49.6 65.7 50.9 68.7 49.7 70.6 48 67 44.8" fill="#fda57d" style=""/>
  <path d="M 64.9 46.3 C 64.9 46.3 60.8 45.9 55.3 54.4 C 47.4 66.6 45 64 45 64 L 64.8 64.2 C 64.8 64.2 69.2 52.1 68.7 49.7 C 68.7 49.7 64.9 50.6 64.9 46.3 Z" fill="#4d8af0" style=""/>
  <path d="M 66.9 44.8 C 67.1 46.5 67.8 48.4 69.2 49.3 L 70.3 48.4 L 66.9 44.8 Z" opacity="0.1" style=""/>
  <circle cx="365" cy="185.9" r="5.7" transform="matrix(0.006283, -0.99998, 0.99998, 0.006283, -115.427551, 407.900665)" fill="#fda57d" style=""/>
  <path d="M 78.8 46.5 C 79.3 44.8 79.7 43.3 79.4 41.5 C 78.7 38.9 75.9 37 73 36.6 C 70.7 36.3 68.5 37.2 67 38.9 C 65.7 40.3 65.6 42.6 64.6 44 C 63.7 45.6 62.1 46.6 61.3 48.3 C 61.2 48.5 61.2 48.8 61.3 49 C 61.4 49.4 61.9 49.5 62.3 49.5 C 64.1 50.2 65.6 51.4 66.6 53.2 C 66.4 50.2 68.7 47.6 70.7 45.3 C 71.6 44.4 73.4 42.9 74.8 43.8 C 74.9 43.9 78.6 47.3 78.8 46.5 Z" opacity="0.1" style=""/>
  <path d="M 67.9 53.2 C 67.9 53.2 69.1 56.2 66.6 57.1" fill="#2681f9" style=""/>
  <rect y="63.6" width="285.1" height="114.2" style="fill: rgb(240, 253, 255);" x="1.1"/>
  <path d="M 68.6 74.9 L 68.6 105.1 L 80.9 105.1 L 80.9 113.2 C 84.5 107.1 89.7 105.1 89.7 105.1 L 139.1 105.1 L 139.1 74.9 Z" fill="#2681f9" style=""/>
  <path d="M 20.2 124.5 L 20.2 148 L 32.6 148 L 32.6 156 C 36 149.9 41.3 148 41.3 148 L 96.1 148 L 96.1 124.5 Z" fill="#2681f9" style=""/>
  <path d="M 241.2 94.2 L 241.2 117.7 L 228.9 117.7 L 228.9 125.7 C 225.3 119.6 220 117.7 220 117.7 L 165.3 117.7 L 165.3 94.2 Z" fill="#e0e0e0" style=""/>
  <path d="M 219.4 153.8 L 219.4 167.1 L 216.5 167.1 L 216.5 175.3 C 214.2 169.1 211 167.1 211 167.1 L 130.6 167.1 L 130.6 153.8 Z" fill="#e0e0e0" style=""/>
  <circle cx="203.8" cy="163.6" r="2.1" fill="#fff" style="" transform="matrix(0.679424, 0, 0, 1.078079, 43.852654, -17.09264)"/>
  <circle cx="246.7" cy="164.6" r="2.1" fill="#fff" style="" transform="matrix(0.679424, 0, 0, 1.078079, 43.852654, -17.09264)"/>
  <circle cx="240.7" cy="164.6" r="2.1" fill="#fff" style="" transform="matrix(0.679424, 0, 0, 1.078079, 43.852654, -17.09264)"/>
  <circle cx="234.6" cy="164.6" r="2.1" fill="#fff" style="" transform="matrix(0.679424, 0, 0, 1.078079, 43.852654, -17.09264)"/>
  <path d="M 57 58.1 C 58.8 64.4 62.7 70.1 67.9 74.4 L 70 73.1 C 70 73.1 61.1 60 63.8 47 L 63.3 47.2 C 58.3 48.3 55.5 53.3 57 58.1 Z" opacity="0.1" style=""/>
  <path d="M 57.1 58.1 C 58.9 64.4 62.9 70.1 68.1 74.4 L 70.1 73.1 C 70.1 73.1 61.2 60 63.9 47 L 63.5 47.2 C 58.5 48.3 55.6 53.3 57.1 58.1 Z" fill="#4d8af0" style=""/>
  <path d="M 78.8 46.4 C 79.3 44.7 79.7 43.2 79.4 41.4 C 78.7 38.8 75.9 36.7 73 36.4 C 70.7 36.3 68.5 37.1 67 38.8 C 65.7 40.2 63.6 41.3 62.6 42.9 C 61.7 44.5 62.1 46.5 61.3 48.2 C 61.2 48.4 61.2 48.7 61.3 48.9 C 61.4 49.3 61.9 49.4 62.3 49.4 C 64.1 50.1 65.6 51.3 66.6 53.1 C 66.4 50.1 68.7 47.5 70.6 45.2 C 71.6 44.1 73.2 42.8 74.8 43.7 C 74.9 43.8 78.6 47.2 78.8 46.4 Z" fill="#333" style=""/>
  <path d="M 68.2 74.4 C 68.2 74.4 71.1 78.8 71.8 76.9 C 72.5 75 70.3 73 70.3 73 Z" fill="#fda57d" style=""/>
  <ellipse cx="359.4" cy="190.7" rx="1.6" ry="0.6" transform="matrix(0.447291, -0.894389, 0.894389, 0.447291, -260.377991, 281.734833)" fill="#fda57d" style=""/>
  <g opacity="0.5" transform="matrix(0.324665, 0, 0, 0.324665, -53.669392, 33.654903)" style="">
    <path d="M1032.94,539.2c10.78,17.8,13.5,31.58,13.5,31.58,3.2-57-14.15-36.7-15.83-35.74l0-.07-5.8,3.35a13.34,13.34,0,0,0-9.33-3.93,13,13,0,0,0-7,2.07c-4.13.1-7.43,2.2-7.43,4.8a3.13,3.13,0,0,0,.26,1.22,15,15,0,0,0,8.95,24.95l1.53,10.88-2.42,1.9a13.37,13.37,0,0,0-5.16,9.69c-.23,4,1.43,8.64,9,11,0,0-.13,1.39-.38,3.59l-12.8,25.6s-5.12,11.73.37,12.08c7.89-1.37,6.52-4.46,7.55-7.21l.6-2h3c-2.45,13.4-10.45,59.48-9.65,86.62v7.85l-.51,3.89-14.74,4.42a3.71,3.71,0,0,0,1.19,7.26l20.83-.69a3.71,3.71,0,0,0,3.58-3.7V728H1016v-8.47l3.77-45.19.49-1.16.45,5.87,16.95,37.66,3.77,6.59,1.64-.88-.52,6.19-6.86,6a3.71,3.71,0,0,0-.95,4.32h0a3.71,3.71,0,0,0,5,1.8l18.7-9.2a3.71,3.71,0,0,0,1.74-4.85l-1.65-3.65a3.69,3.69,0,0,0-2.58-2.08l-3.54-3.54,1.22-.66-2.82-6.59-16.95-39.54-.7-22.26a15.07,15.07,0,0,0,7.14-15.41h1.09s-2.4-14-3.65-29.19l-.12-1.48V600s-.13-.72-.35-1.88c-1.33-15-3.39-27-14.63-28.33l-.08.07v-4.63a17,17,0,0,0,7.29-14.31,18.14,18.14,0,0,0-2.18-8.68l5.25-3Z" transform="translate(-137.5 -157.05)" fill="url(#aa3e344a-b185-47a1-8d72-ce117b4596cd)"/>
  </g>
  <ellipse cx="231.4" cy="162.3" rx="4.5" ry="5.2" fill="#795548" style=""/>
  <polygon points="230.2 217.5 230.2 220.1 226.8 220.1 227.1 217.9 230.2 217.5" fill="#fda57d" style=""/>
  <path d="M 240.1 215.4 L 239.8 218.9 L 240 218.9 C 241.3 218.9 242.7 218.5 243.9 217.5 L 244.9 216.6 L 242.2 213.8 Z" fill="#fda57d" style=""/>
  <polygon points="232.7 198.8 232.9 202.6 238.4 214.5 242.5 212.5 237.1 200 236.8 190.5 232.1 190.5 232.7 198.8" fill="#4d8af0" style=""/>
  <polygon points="232.7 198.8 232.9 202.6 238.4 214.5 242.5 212.5 237.1 200 236.8 190.5 232.1 190.5 232.7 198.8" opacity="0.05" style=""/>
  <path d="M 231.5 177.2 L 226.5 187.2 C 226.5 187.2 224.7 190.9 226.5 191 C 229.1 190.7 228.6 189.5 229 188.8 L 232.1 178 Z" fill="#fda57d" style=""/>
  <circle cx="230.3" cy="162.8" r="4.8" fill="#fda57d" style=""/>
  <polygon points="233.5 169.8 230.2 171.5 229.3 165.5 233.5 165.5 233.5 169.8" fill="#fda57d" style=""/>
  <path d="M 230.2 187 C 230.2 187 226.8 205.3 227.1 215.4 L 231.5 215.4 L 232.7 201.3 L 235.8 193.4 C 235.8 193.4 240.3 192.1 238.9 187 Z" fill="#4d8af0" style=""/>
  <rect x="227.1" y="215" width="4.4" height="3.2" fill="#4d8af0" style=""/>
  <rect x="227.1" y="215" width="4.4" height="3.2" fill="#fff" opacity="0.05" style=""/>
  <polygon points="238.3 214.3 239.4 216.6 243.3 214.5 242.3 212 238.3 214.3" fill="#4d8af0" style=""/>
  <path d="M 227.8 219.3 L 222.2 220.5 C 221.8 220.6 221.5 221 221.5 221.5 L 221.5 221.5 C 221.5 222.3 221.9 222.9 222.6 222.7 L 229.1 222.6 C 229.7 222.6 230.2 222 230.2 221.3 L 230.2 220.1 C 230.2 219.4 230.3 219.3 229.7 219.3 L 228.2 219.3 C 228 219.3 227.9 219.3 227.8 219.3 Z" fill="#333" style=""/>
  <path d="M 233.5 168.3 L 229.3 171.6 C 228.4 172.3 227.8 173.4 227.8 174.6 C 227.7 175.9 228.2 177.3 230.5 178 C 230.5 178 229.7 187.5 228.2 188.2 L 239.4 188.2 C 239.4 188.2 238.8 183.6 238.4 179 C 237.8 173.4 237.6 168.6 233.5 168.3 Z" fill="#eee" style=""/>
  <path d="M 233.5 174.1 L 236.3 179 L 235.8 189.5 C 235.8 189.5 234.5 192.1 235.6 192.3 C 236.8 192.6 238.6 191.6 238.3 190 L 238.3 177.7 C 238.3 177.7 237.5 172.7 236.6 171.6 Z" fill="#fda57d" style=""/>
  <path d="M 242.1 217 L 237.7 220.1 C 237.3 220.5 237.2 221 237.3 221.5 L 237.3 221.5 C 237.7 222 238.4 222.4 238.9 222 L 244.9 219.2 C 245.4 218.8 245.7 218.2 245.4 217.6 L 244.9 216.4 C 244.6 215.9 244.3 215.7 243.8 216.1 L 242.1 217 C 242.1 217.1 242.2 217 242.1 217 Z" fill="#333" style=""/>
  <polygon points="235.8 159.2 234.8 159.8 234 158.5 235.1 157.8 235.8 159.2" fill="#795548" style=""/>
  <path d="M 235.1 157.8 C 235.1 157.8 242.3 150.4 240.8 168.5 C 239.5 165.3 238 162.2 235.8 159.3 Z" fill="#795548" style=""/>
  <ellipse cx="231.7" cy="162.3" rx="4.1" ry="4.5" fill="#795548" style=""/>
  <ellipse cx="229.2" cy="159.3" rx="2.4" ry="1.6" fill="#795548" style=""/>
  <g opacity="0.5" transform="matrix(0.324665, 0, 0, 0.324665, -1.095189, 34.683758)" style="">
    <path d="M583.33,560.38c-1.51-4.53-10.49,1.59-10.49,1.59l-.74,1-16,21.57L517.06,562.7v-9.78a13.58,13.58,0,0,0,11.88-15.8,14.73,14.73,0,0,0,5-4c1.36-1.45,2.82-3.2,2.68-5.13a3.56,3.56,0,0,0-.05-.92,4.92,4.92,0,0,0-3.34-3.38,31.8,31.8,0,0,0-4.86-1c-3.87-.76-7.37-2.78-11.15-3.93a25.37,25.37,0,0,0-5.27-1,7.68,7.68,0,0,0-3.79.42,13,13,0,0,0-3.25,2.67,14.78,14.78,0,0,1-4.26,2.77c-2.34,1-5,1.4-7.08,2.81a4.17,4.17,0,0,0-1.43,1.43,3.89,3.89,0,0,0-.38,2,10.19,10.19,0,0,0,.14,1.84,20.57,20.57,0,0,0,2.11,7.52,21.26,21.26,0,0,0,4.26,4.78l3.55,3.25a8,8,0,0,0,2.44,1.81,1.87,1.87,0,0,1,.55-1.34l-1.15,8a23.26,23.26,0,0,0-6.6-1c-3,0-6.07.51-7.4,2.57a2.85,2.85,0,0,0-.2.39c-4.16,4.94-13.7,20.94-8.09,59.79-.48,4.75-.77,7.76-.77,7.76l0,.48,0,.36.06.05,3.12,42.9-6,42.28h1.34v4.7h-1.51v7.55s21-1.34,24.16-6c2.65-3.9-10.54-2.37-15.1-1.73V713h.08v-1.59h1.59l6-28.69c6.21-10.74,3-37.58,3-37.58l7.55,4.53,6,31.54L506.49,728h1.34v3.27h-1.76v7.55s21-1.34,24.16-6c2.64-3.9-10.53-2.37-15.1-1.73l-.51-3h.92l6-42.28c3-11.45-1.08-45.07-1.62-49.37l7.49-49.45-.11-.14.11-.7,30.2,10.57s3,3,6.12-6c2.9-8.39,10.86-19.64,11.89-21.07l.11-.15S584.84,564.91,583.33,560.38Z" transform="translate(-137.5 -157.05)" fill="url(#019be7ee-c174-4831-83df-34be516e09e3)"/>
  </g>
  <polygon points="110.1 213.5 110.1 215.8 112.5 215.8 112.5 212.5 110.1 213.5" fill="#fda57d" style=""/>
  <polygon points="119.2 218.2 119.2 221 121.5 220.6 121.1 217.8 119.2 218.2" fill="#fda57d" style=""/>
  <path d="M 113.9 164.8 C 113.9 164.8 108.2 168.9 111.2 185.8 Z" fill="#4d8af0" style=""/>
  <path d="M 113.9 164.8 C 113.9 164.8 108.2 168.9 111.2 185.8 Z" opacity="0.05" style=""/>
  <polygon points="121.4 219.6 121.2 218.4 119.2 218.7 119.2 219.6 121.4 219.6" opacity="0.05" style=""/>
  <polygon points="110.2 214.4 112.5 214.4 112.5 213 110.2 213.8 110.2 214.4" opacity="0.05" style=""/>
  <polygon points="118.2 162 117.7 165.3 122 167.7 122 162.8 118.2 162" fill="#fda57d" style=""/>
  <path d="M 109.7 213.8 L 111.6 200.5 L 110.6 186.8 L 123 190 C 123 190 124.5 201.9 123.5 205.7 L 121.7 219.1 L 118.8 219.1 L 120.2 204.3 L 118.2 194.4 L 115.9 193 C 115.9 193 117 201.5 115 204.8 L 113.1 213.8 Z" fill="#eee" style=""/>
  <path d="M 143.1 166.3 C 142.5 164.8 139.7 166.7 139.7 166.7 L 139.4 167 L 140.5 169.1 L 140.5 169.1 C 140.5 169.1 143.5 167.7 143.1 166.3 Z" fill="#fda57d" style=""/>
  <path d="M 118.2 165.1 C 118.2 165.1 114.3 164.1 113.4 165.4 C 112.5 167 110.6 187 110.6 187 C 110.6 187 116.3 191.9 123 190.5 L 125.5 174.6 Z" opacity="0.05" style=""/>
  <path d="M 134.4 173.8 L 119.3 165.4 C 118.2 164.8 117.1 164.5 115.8 164.5 C 115 164.5 113.8 164.6 113.4 165.2 C 112.5 166.7 110.6 186.8 110.6 186.8 C 110.6 186.8 116.3 191.4 123 190 L 125.5 174.4 L 134.9 177.6 C 134.9 177.6 136 178.6 136.9 175.8 C 137.9 173.2 140.3 169.6 140.5 169.1 L 139.4 167 Z" fill="#4d8af0" style=""/>
  <path d="M 118.2 162.7 C 119 163.8 120.2 164.3 121.5 164.3 C 121.8 164.3 121.9 164.3 122 164.3 L 122 163.3 L 118.2 162.4 Z" opacity="0.05" style=""/>
  <circle cx="121.7" cy="159.6" r="4.3" fill="#fda57d" style=""/>
  <path d="M 109.7 215.4 L 109.7 217.8 C 109.7 217.8 116.2 217.4 117.2 215.8 C 118.2 214.4 112 215.4 112 215.4 Z" fill="#333" style=""/>
  <path d="M 118.7 220.2 L 118.7 222.7 C 118.7 222.7 125.3 222.3 126.3 220.6 C 127.3 219.2 121.1 220.2 121.1 220.2 Z" fill="#333" style=""/>
  <path d="M 118.9 161.5 L 120.6 159.2 C 120.8 158.8 121.1 158.5 121.4 158 C 121.8 157.8 122.2 157.7 122.6 157.8 C 122.8 157.9 123.1 158 123.3 158.3 C 123.8 158.8 124.6 159.1 125.5 159 C 126.3 158.8 126.9 158 127.4 157.6 C 128 157.1 128.5 156.5 128.3 155.8 C 128.1 155.3 127.6 154.9 127.1 154.8 C 126.8 154.7 126.3 154.6 125.7 154.6 C 124.4 154.2 123.3 153.6 122.2 153.2 C 121.7 153 121.1 152.9 120.6 152.9 C 120.1 152.8 119.6 152.9 119.3 153 C 118.9 153.2 118.6 153.6 118.2 153.8 C 117.8 154.2 117.4 154.6 117 154.8 C 116.2 155.2 115.4 155.2 114.6 155.6 C 114.4 155.6 114.3 155.9 114.2 156 C 114 156.5 114 156.8 114 157.1 C 114.2 157.9 114.4 158.8 114.8 159.6 C 115.2 160.2 115.7 160.6 116.2 161 L 117.2 162.1 C 117.5 162.3 117.7 162.4 118 162.6 C 118 162.2 118.7 161.7 118.9 161.5 Z" opacity="0.05" style=""/>
  <path d="M 118.9 161.4 L 120.6 159 C 120.8 158.7 121.1 158.3 121.4 157.9 C 121.8 157.7 122.2 157.6 122.6 157.7 C 122.8 157.8 123.1 157.9 123.3 158 C 123.8 158.6 124.6 159 125.5 158.8 C 126.3 158.7 126.9 157.9 127.4 157.3 C 128 157 128.5 156.2 128.3 155.6 C 128.1 155.2 127.6 154.8 127.1 154.7 C 126.8 154.6 126.3 154.3 125.7 154.2 C 124.4 154.1 123.3 153.5 122.2 153 C 121.7 152.9 121.1 152.8 120.6 152.7 C 120.1 152.7 119.6 152.7 119.3 152.8 C 118.9 153 118.6 153.4 118.2 153.7 C 117.8 154.1 117.4 154.3 117 154.7 C 116.2 154.9 115.4 155 114.6 155.4 C 114.4 155.5 114.3 155.6 114.2 155.9 C 114 156.1 114 156.6 114 157 C 114.2 157.7 114.4 158.6 114.8 159.3 C 115.2 159.9 115.7 160.4 116.2 160.9 L 117.2 162 C 117.5 162.1 117.7 162.3 118 162.4 C 118 162.1 118.7 161.6 118.9 161.4 Z" fill="#333" style=""/>
</svg>