<?xml version="1.0" encoding="utf-8"?>
<svg viewBox="0 0 288 225" width="288px" height="225px" xmlns="http://www.w3.org/2000/svg" xmlns:xlink="http://www.w3.org/1999/xlink">
  <defs>
    <linearGradient id="f0ea422a-a980-4a9e-8fad-43c87f6ba738" x1="421.86" y1="330.48" x2="421.86" y2="285.82" gradientUnits="userSpaceOnUse" gradientTransform="matrix(0.256169, 0, 0, 0.256169, 2.948632, 22.505255)">
      <stop offset="0" stop-color="gray" stop-opacity="0.25"/>
      <stop offset="0.54" stop-color="gray" stop-opacity="0.12"/>
      <stop offset="1" stop-color="gray" stop-opacity="0.1"/>
    </linearGradient>
    <linearGradient id="ad2c5ae7-cdf4-4789-99a0-6bde37321e66" x1="516.9" y1="320.8" x2="516.9" y2="276.14" gradientTransform="matrix(0.256169, 0, 0, 0.256169, -94.169037, -61.866318)" xlink:href="#f0ea422a-a980-4a9e-8fad-43c87f6ba738"/>
    <linearGradient id="af61e5a9-3371-4284-9366-60d451e53b7c" x1="699.9" y1="472.8" x2="699.9" y2="428.14" gradientTransform="matrix(0.256169, 0, 0, 0.256169, -94.169037, -61.866318)" xlink:href="#f0ea422a-a980-4a9e-8fad-43c87f6ba738"/>
    <linearGradient id="afe800ea-76fc-42fa-87d3-444aeaebb97e" x1="293.63" y1="250.89" x2="293.63" y2="206.23" gradientTransform="matrix(0.256169, 0, 0, 0.256169, -94.169037, -61.866318)" xlink:href="#f0ea422a-a980-4a9e-8fad-43c87f6ba738"/>
    <linearGradient id="a0a14e29-1e29-4199-9658-2a5ebd9bc7a2" x1="385.29" y1="314.89" x2="385.29" y2="270.23" gradientTransform="matrix(0.256169, 0, 0, 0.256169, -94.169037, -61.866318)" xlink:href="#f0ea422a-a980-4a9e-8fad-43c87f6ba738"/>
    <linearGradient id="b9eaa648-e9e9-4a67-ba92-603c001fbd1d" x1="753.86" y1="472.48" x2="753.86" y2="427.82" gradientTransform="matrix(0.256169, 0, 0, 0.256169, -94.169037, -61.866318)" xlink:href="#f0ea422a-a980-4a9e-8fad-43c87f6ba738"/>
    <linearGradient id="f05d82f5-c8d6-44fc-8266-fef5229bfdcd" x1="834.86" y1="251.48" x2="834.86" y2="206.82" gradientTransform="matrix(0.256169, 0, 0, 0.256169, -94.169037, -61.866318)" xlink:href="#f0ea422a-a980-4a9e-8fad-43c87f6ba738"/>
    <linearGradient id="fed5a35b-50d2-4029-b1da-9e4ece87a2f7" x1="829.86" y1="393.48" x2="829.86" y2="348.82" gradientTransform="matrix(0.256169, 0, 0, 0.256169, -94.169037, -61.866318)" xlink:href="#f0ea422a-a980-4a9e-8fad-43c87f6ba738"/>
    <linearGradient id="a057bd9d-3da5-4ef9-9b1f-12de91a9714e" x1="864.86" y1="403.48" x2="864.86" y2="358.82" gradientTransform="matrix(0.256169, 0, 0, 0.256169, -94.169037, -61.866318)" xlink:href="#f0ea422a-a980-4a9e-8fad-43c87f6ba738"/>
    <linearGradient id="eb119f49-f305-49d7-b722-178b1b910dac" x1="717.29" y1="456.89" x2="717.29" y2="412.23" gradientTransform="matrix(0.256169, 0, 0, 0.256169, -94.169037, -61.866318)" xlink:href="#f0ea422a-a980-4a9e-8fad-43c87f6ba738"/>
    <linearGradient id="f18d0c9f-76a8-47d5-9395-c2e15513d6af" x1="722.29" y1="321.89" x2="722.29" y2="277.23" gradientTransform="matrix(0.256169, 0, 0, 0.256169, -94.169037, -61.866318)" xlink:href="#f0ea422a-a980-4a9e-8fad-43c87f6ba738"/>
    <linearGradient id="e96273f1-ace8-4241-9189-48d1ceb051fa" x1="122.28" y1="564.8" x2="344.94" y2="564.8" gradientTransform="matrix(0.256169, 0, 0, 0.256169, -102.830116, -78.883621)" xlink:href="#f0ea422a-a980-4a9e-8fad-43c87f6ba738"/>
    <linearGradient id="fa251bcb-f561-47ff-8b25-b5a12635a0f6" x1="277.86" y1="393.48" x2="277.86" y2="348.82" gradientTransform="matrix(0.256169, 0, 0, 0.256169, -94.169037, -61.866318)" xlink:href="#f0ea422a-a980-4a9e-8fad-43c87f6ba738"/>
  </defs>
  <g style="visibility: hidden;">
    <path d="M 40.6 222.9 L 40.1 222.8 C 45.5 198.6 59.2 176.6 78.7 160.9 C 142.6 109.2 238.7 142.3 257.1 222.5 L 256.6 222.6 C 245.1 171.9 200.7 136.6 148.6 136.6 C 97.3 136.6 51.9 172.9 40.6 222.9 Z" fill="#3f3d56" style=""/>
    <circle cx="110.7" cy="66.7" r="13.6" fill="#ff6584" style=""/>
    <path d="M 52.1 219.9 C 52.5 221.4 54 222.4 54 222.4 C 54 222.4 54.7 220.8 54.3 219.2 C 53.9 217.7 52.4 216.7 52.4 216.7 C 52.4 216.7 51.7 218.3 52.1 219.9 Z" fill="#3f3d56" style=""/>
    <path d="M 52.7 219.5 C 53.9 220.6 54 222.4 54 222.4 C 54 222.4 52.2 222.3 51.1 221.2 C 49.9 220.1 49.8 218.3 49.8 218.3 C 49.8 218.3 51.5 218.4 52.7 219.5 Z" fill="#f99426" style=""/>
    <path d="M 84.4 219.9 C 84.8 221.4 86.3 222.4 86.3 222.4 C 86.3 222.4 87 220.8 86.6 219.2 C 86.2 217.7 84.7 216.7 84.7 216.7 C 84.7 216.7 83.9 218.3 84.4 219.9 Z" fill="#3f3d56" style=""/>
    <path d="M 85 219.5 C 86.2 220.6 86.3 222.4 86.3 222.4 C 86.3 222.4 84.6 222.3 83.4 221.2 C 82.2 220.1 82.1 218.3 82.1 218.3 C 82.1 218.3 83.8 218.4 85 219.5 Z" fill="#f99426" style=""/>
    <polygon points="90.8 94.9 85.6 90.8 114.4 65.2 187 65.2 187 87.7 139.9 119.5 90.8 94.9" fill="#3f3d56" style=""/>
    <polygon points="200.2 79.6 200.2 65.8 190.6 65.8 190.6 69.2 187 65.2 163.4 90.8 154.3 97 140 201.2 161.5 222.8 211.6 222.8 211.6 91.8 200.2 79.6" fill="#ccc" style=""/>
    <rect x="85.6" y="90.8" width="77.8" height="132" fill="#f2f2f2" style=""/>
    <rect x="115.9" y="190.6" width="14.4" height="32.2" fill="#ccc" style=""/>
    <polygon points="100.5 199.7 100.5 194.6 94.3 194.6 94.3 199.7 100 199.7 100.5 199.7" fill="#3f3d56" style=""/>
    <polygon points="100 203.9 94.3 203.9 94.3 209 100.5 209 100.5 203.9 100 203.9" fill="#3f3d56" style=""/>
    <rect x="104.6" y="194.6" width="6.1" height="5.1" fill="#3f3d56" style=""/>
    <rect x="104.6" y="203.9" width="6.1" height="5.1" fill="#3f3d56" style=""/>
    <polygon points="142.5 199.7 142.5 194.6 136.3 194.6 136.3 199.7 142 199.7 142.5 199.7" fill="#3f3d56" style=""/>
    <polygon points="142 203.9 136.3 203.9 136.3 209 142.5 209 142.5 203.9 142 203.9" fill="#3f3d56" style=""/>
    <rect x="146.5" y="194.6" width="6.1" height="5.1" fill="#3f3d56" style=""/>
    <rect x="146.5" y="203.9" width="6.1" height="5.1" fill="#3f3d56" style=""/>
    <polygon points="185.5 97.4 185.5 92.3 179.3 92.3 179.3 97.4 184.9 97.4 185.5 97.4" fill="#3f3d56" style=""/>
    <polygon points="184.9 101.5 179.3 101.5 179.3 106.7 185.5 106.7 185.5 101.5 184.9 101.5" fill="#3f3d56" style=""/>
    <rect x="189.5" y="92.3" width="6.1" height="5.1" fill="#3f3d56" style=""/>
    <rect x="189.5" y="101.5" width="6.1" height="5.1" fill="#3f3d56" style=""/>
    <polygon points="185.5 126.1 185.5 121 179.3 121 179.3 126.1 184.9 126.1 185.5 126.1" fill="#3f3d56" style=""/>
    <polygon points="184.9 130.2 179.3 130.2 179.3 135.3 185.5 135.3 185.5 130.2 184.9 130.2" fill="#3f3d56" style=""/>
    <rect x="189.5" y="121" width="6.1" height="5.1" fill="#3f3d56" style=""/>
    <rect x="189.5" y="130.2" width="6.1" height="5.1" fill="#3f3d56" style=""/>
    <polygon points="185.5 154.7 185.5 149.6 179.3 149.6 179.3 154.7 184.9 154.7 185.5 154.7" fill="#3f3d56" style=""/>
    <polygon points="184.9 158.9 179.3 158.9 179.3 164 185.5 164 185.5 158.9 184.9 158.9" fill="#3f3d56" style=""/>
    <rect x="189.5" y="149.6" width="6.1" height="5.1" fill="#3f3d56" style=""/>
    <rect x="189.5" y="158.9" width="6.1" height="5.1" fill="#3f3d56" style=""/>
    <polygon points="185.5 183.4 185.5 178.3 179.3 178.3 179.3 183.4 184.9 183.4 185.5 183.4" fill="#3f3d56" style=""/>
    <polygon points="184.9 187.5 179.3 187.5 179.3 192.6 185.5 192.6 185.5 187.5 184.9 187.5" fill="#3f3d56" style=""/>
    <rect x="189.5" y="178.3" width="6.1" height="5.1" fill="#3f3d56" style=""/>
    <rect x="189.5" y="187.5" width="6.1" height="5.1" fill="#3f3d56" style=""/>
    <rect x="94.3" y="97.4" width="59.4" height="12.3" fill="#3f3d56" style=""/>
    <rect x="94.3" y="122" width="59.4" height="12.3" fill="#3f3d56" style=""/>
    <rect x="94.3" y="146.6" width="59.4" height="12.3" fill="#3f3d56" style=""/>
    <rect x="94.3" y="171.1" width="59.4" height="12.3" fill="#3f3d56" style=""/>
    <rect y="222.3" width="284.9" height="0.5" fill="#3f3d56" style="" x="6.2"/>
    <rect x="53.9" y="164.5" width="1.5" height="58.2" fill="#3f3d56" style=""/>
    <path d="M 69 171.8 C 69.1 192.2 54.7 208.7 54.7 208.7 C 54.7 208.7 40.2 192.3 40.1 171.9 C 40.1 151.6 54.4 135.1 54.4 135.1 C 54.4 135.1 68.9 151.5 69 171.8 Z" fill="#f99426" style=""/>
    <path d="M 69 171.8 C 69.1 192.2 54.7 208.7 54.7 208.7 C 54.7 208.7 40.2 192.3 40.1 171.9 C 40.1 151.6 54.4 135.1 54.4 135.1 C 54.4 135.1 68.9 151.5 69 171.8 Z" opacity="0.1" style=""/>
    <rect x="34.8" y="164.5" width="1.5" height="58.2" fill="#3f3d56" style=""/>
    <path d="M 49.8 171.8 C 49.9 192.2 35.6 208.7 35.6 208.7 C 35.6 208.7 21.1 192.3 21 171.9 C 21 151.6 35.2 135.1 35.2 135.1 C 35.2 135.1 49.7 151.5 49.8 171.8 Z" fill="#f99426" style=""/>
    <path d="M 243.1 90.7 C 231.5 90.8 222.1 90.9 222.1 90.9 C 222.1 90.9 233.2 76.1 243.1 81.5 C 252.8 87.1 264.1 90.7 264.1 90.7 C 264.1 90.7 254.7 90.6 243.1 90.7 Z" fill="#f2f2f2" style=""/>
    <path d="M 49.9 119.3 C 38.3 119.4 28.9 119.5 28.9 119.5 C 28.9 119.5 40.1 104.6 49.9 110.1 C 59.6 115.7 70.9 119.3 70.9 119.3 C 70.9 119.3 61.5 119.2 49.9 119.3 Z" fill="#f2f2f2" style=""/>
    <path d="M 92 59.6 C 80.4 59.7 71 59.9 71 59.9 C 71 59.9 82.2 45 92 50.5 C 101.7 56 113 59.7 113 59.7 C 113 59.7 103.6 59.6 92 59.6 Z" fill="#f2f2f2" style=""/>
    <rect x="265.5" y="164.5" width="1.5" height="58.2" fill="#3f3d56" style=""/>
    <path d="M 280.5 171.8 C 280.6 192.2 266.3 208.7 266.3 208.7 C 266.3 208.7 251.9 192.3 251.8 171.9 C 251.7 151.6 266 135.1 266 135.1 C 266 135.1 280.4 151.5 280.5 171.8 Z" fill="#f99426" style=""/>
    <polygon points="212.8 186.5 227.7 186.5 227.7 182.9 235.9 182.9 235.9 186.5 251.2 186.5 251.2 202.4 235.9 202.4 235.9 222.3 227.7 222.3 227.7 202.4 212.8 202.4 205.1 193.7 212.8 186.5" fill="#3f3d56" style=""/>
  </g>
  <g>
    <path d="M 159.9 51.2 C 142.1 51.2 125 45.8 108.5 39.5 C 92 33.4 75.8 26.5 58.3 23.5 C 47 21.6 34.2 21.8 25.4 28.5 C 17 35 14.6 45.8 13.4 55.7 C 12.5 63.2 12.2 71 15.4 77.9 C 17.9 82.6 21.7 86.6 24.6 91.1 C 34.4 106.8 28.6 127 19.1 143.1 C 14.7 150.5 9.5 157.8 6.3 165.8 C 2.9 173.8 1.5 182.9 5 190.8 C 8.4 198.6 16.1 204.3 24.3 208.2 C 41 216.2 60.5 217.8 79.4 218.6 C 121.3 220.2 163.2 217.3 205 214.6 C 220.5 213.5 236.1 212.5 251.2 209.3 C 259.7 207.6 268.3 205.1 274.3 199.4 C 281.8 192.1 283.3 180.3 277.8 171.9 C 268.5 157.6 244.2 154.9 237.4 139.4 C 233.7 131 236.9 121.3 241.5 113.1 C 251.4 95.6 268.5 80 268.7 60.4 C 268.9 46.9 260 33.8 246.6 27.9 C 232.6 21.6 213.6 23.2 203.8 34.6 C 193.8 46.3 175.6 51.3 159.9 51.2 Z" fill="#f99426" opacity="0.1" style=""/>
    <path d="M 248.6 182.9 C 248.6 182.9 245.4 180.8 242.4 182.2 C 242.4 182.2 243.3 184.1 247.2 183.9 Z" fill="#f99426" style=""/>
    <path d="M 249 183 C 249 183 250 186.7 247.5 189.1 C 247.5 189.1 246.1 187.6 247.5 183.9 Z" fill="#f99426" style=""/>
    <path d="M 252.9 179.5 C 252.9 179.5 252.7 176.3 245.6 177.4 C 245.6 177.4 245.6 179.4 248.1 180.3 C 250.6 181.3 251.6 180.6 252.9 179.5 Z" fill="#f99426" style=""/>
    <path d="M 253.3 179.5 C 253.3 179.5 256.3 180.5 253.6 187 C 253.6 187 251.8 186.6 251.3 183.9 C 251 181.3 252.1 180.5 253.3 179.5 Z" fill="#f99426" style=""/>
    <path d="M 257.3 175.1 C 257.3 175.1 257.8 169.9 250.5 170.4 C 250.5 170.4 250.1 175.1 256.1 176.2 Z" fill="#f99426" style=""/>
    <path d="M 262.1 169.3 C 262.1 169.3 261 163.5 253.9 165.3 C 253.9 165.3 253.9 170.2 260.8 170.7 Z" fill="#f99426" style=""/>
    <path d="M 265.4 163.4 C 265.4 163.4 263.9 157.7 256.8 159.4 C 256.8 159.4 258.5 164.4 265 164.4 Z" fill="#f99426" style=""/>
    <path d="M 268.8 157.5 C 268.8 157.5 267.1 151.7 260.3 153.4 C 260.3 153.4 262.6 159 268.3 158.5 Z" fill="#f99426" style=""/>
    <path d="M 270.9 152 C 270.9 152 269.7 144.9 263.3 146.4 C 263.3 146.4 265.1 153 270.4 153.1 Z" fill="#f99426" style=""/>
    <path d="M 272.9 145.3 C 272.9 145.3 271.3 138.1 264.9 140.2 C 264.9 140.2 267.4 147 272.4 146.3 Z" fill="#f99426" style=""/>
    <path d="M 274.1 139.1 C 274.1 139.1 271.8 131.9 266.7 132.1 C 266.7 132.1 269.1 139.7 273.7 140.5 Z" fill="#f99426" style=""/>
    <path d="M 274.9 133.1 C 274.9 133.1 272.3 124.3 268.3 125.1 C 268.3 125.1 270.1 131.7 274.7 134.4 Z" fill="#f99426" style=""/>
    <path d="M 275.3 125.8 C 275.3 125.8 272.9 118.5 268.9 118.2 C 268.9 118.2 270.6 125.4 275.2 127.7 Z" fill="#f99426" style=""/>
    <path d="M 275.8 119.1 C 275.8 119.1 272.8 111.8 270.2 111.7 C 270.2 111.7 271.4 118.7 275.6 120.2 Z" fill="#f99426" style=""/>
    <path d="M 276.2 112.7 C 276.2 112.7 274.3 104.9 271.7 104.2 C 271.7 104.2 272 110.6 275.9 113.4 Z" fill="#f99426" style=""/>
    <path d="M 277.1 104.5 C 277.1 104.5 275.2 98.3 273 97.4 C 273 97.4 273.4 104.7 276.7 106.1 Z" fill="#f99426" style=""/>
    <path d="M 278 99.2 L 278.4 88.1 C 278.4 88.1 274.4 96.4 277.7 101.2 Z" fill="#f99426" style=""/>
    <path d="M 281 88.2 C 281 88.2 284 80.1 284.6 79.7 C 284.6 79.7 279 84.9 279.6 91.7 Z" fill="#f99426" style=""/>
    <path d="M 257.5 175.1 C 257.5 175.1 262.6 174.3 262.4 181.5 C 262.4 181.5 257.9 182.2 256.4 176.3 Z" fill="#f99426" style=""/>
    <path d="M 262.3 169.1 C 262.3 169.1 268.2 169.1 267.7 176.5 C 267.7 176.5 262.7 177.3 261.1 170.4 Z" fill="#f99426" style=""/>
    <path d="M 265.6 163.8 C 265.6 163.8 270.9 161.3 274.3 167.7 C 274.3 167.7 269.3 169.8 265.1 164.9 Z" fill="#f99426" style=""/>
    <path d="M 268.9 157.6 C 268.9 157.6 274.4 155 277.6 161.2 C 277.6 161.2 271.9 163.2 268.4 158.5 Z" fill="#f99426" style=""/>
    <path d="M 270.8 152.1 C 270.8 152.1 276.1 147.2 280.3 152.2 C 280.3 152.2 274.9 156.3 270.6 153.3 Z" fill="#f99426" style=""/>
    <path d="M 272.6 145.2 C 272.6 145.2 277.9 140 282 145.4 C 282 145.4 276.1 149.6 272.4 146.2 Z" fill="#f99426" style=""/>
    <path d="M 273.6 139 C 273.6 139 277.7 132.5 282.4 133.9 C 282.4 133.9 278.2 140.7 273.7 140.4 Z" fill="#f99426" style=""/>
    <path d="M 274.8 133 C 274.8 133 278.8 125 282.7 126.3 C 282.7 126.3 279.8 132.5 274.7 134.3 Z" fill="#f99426" style=""/>
    <path d="M 275 125.4 C 275 125.4 279.2 119.1 283.2 119.8 C 283.2 119.8 279.8 126.2 274.6 127.3 Z" fill="#f99426" style=""/>
    <path d="M 275.3 118.9 C 275.3 118.9 278.6 111.8 281.3 111.7 C 281.3 111.7 279.8 118.8 275.6 120.1 Z" fill="#f99426" style=""/>
    <path d="M 276 112.6 C 276 112.6 279.7 105.4 282.4 105.4 C 282.4 105.4 280.5 111.6 276.2 113.3 Z" fill="#f99426" style=""/>
    <path d="M 276.6 104.9 C 276.6 104.9 279.2 99 281.6 98.3 C 281.6 98.3 280.2 105.7 276.8 106.6 Z" fill="#f99426" style=""/>
    <path d="M 278.3 98.9 L 284.4 89.7 C 284.4 89.7 282.8 98.8 277.5 100.7 Z" fill="#f99426" style=""/>
    <path d="M 282.4 88.9 C 282.4 88.9 289.6 84.1 289.8 83.2 C 289.8 83.2 286.2 90.1 279.6 91.3 Z" fill="#f99426" style=""/>
    <path d="M 282.9 86.7 C 282.9 86.7 290.9 78.9 293 78.9 C 293 78.9 286.4 79.2 282.7 86.3 Z" fill="#f99426" style=""/>
    <path d="M 276.6 106.1 L 276.9 106.2 C 278.5 94.3 280.7 87.3 283.2 86.4 L 283.1 86.1 C 280.4 87 278.2 94 276.6 106.1 Z" fill="#444053" style=""/>
    <path d="M 274.4 134.6 L 274.8 134.6 C 274.9 133.6 275 132.4 275 131.3 C 275.4 121.4 276.2 112.4 277 105.6 L 276.7 105.3 C 275.9 112.1 275 121.4 274.6 131.3 C 274.6 132.4 274.5 133.5 274.4 134.6 Z" fill="#444053" style=""/>
    <path d="M 240.3 188.6 C 240.4 188.5 248.2 185 256.4 176.7 C 261.1 171.7 265.1 166.1 268.1 160 C 271.9 152.3 274.2 142.9 274.9 133.8 L 274.5 134 C 272.7 154.5 263.3 168.6 256 176.2 C 247.9 184.5 240.1 187.9 240.1 188 Z" fill="#444053" style=""/>
    <path d="M 271.7 35 L 25.4 35 C 24.3 35 23.3 36.1 23.3 37.2 L 23.3 43.6 L 273.9 43.6 L 273.9 37.2 C 273.9 36.1 272.8 35 271.7 35 Z" fill="#3f3d56" style=""/>
    <path d="M 23.3 43.6 L 23.3 187.4 C 23.3 189.8 25.2 191.8 27.6 191.8 L 269.3 191.8 C 271.9 191.8 273.9 189.8 273.9 187.4 L 273.9 43.6 Z" fill="#fff" style=""/>
    <circle cx="27.2" cy="39.2" r="1.1" fill="#fa5959" opacity="0.8" style=""/>
    <circle cx="30.1" cy="39.2" r="1.1" fill="#fed253" opacity="0.8" style=""/>
    <circle cx="32.9" cy="39.2" r="1.1" fill="#8ccf4d" opacity="0.8" style=""/>
    <g opacity="0.3" transform="matrix(0.256169, 0, 0, 0.256169, 2.948626, 22.505255)" style="">
      <rect x="116.77" y="116.37" width="904" height="510" fill="none" stroke="#3f3d56" stroke-miterlimit="10"/>
      <rect x="234.77" y="116.37" width="668" height="510" fill="none" stroke="#3f3d56" stroke-miterlimit="10"/>
      <rect x="352.77" y="116.37" width="432" height="510" fill="none" stroke="#3f3d56" stroke-miterlimit="10"/>
      <rect x="470.77" y="116.37" width="196" height="510" fill="none" stroke="#3f3d56" stroke-miterlimit="10"/>
      <line x1="568.77" y1="116.37" x2="568.77" y2="626.37" fill="none" stroke="#3f3d56" stroke-miterlimit="10"/>
      <rect x="116.77" y="190.37" width="904" height="362" fill="none" stroke="#3f3d56" stroke-miterlimit="10"/>
      <rect x="116.77" y="263.37" width="904" height="216" fill="none" stroke="#3f3d56" stroke-miterlimit="10"/>
      <rect x="116.77" y="336.37" width="904" height="70" fill="none" stroke="#3f3d56" stroke-miterlimit="10"/>
    </g>
    <rect x="69.1" y="59.7" width="18.2" height="6.6" fill="#3f3d56" opacity="0.1" style=""/>
    <rect x="40.7" y="77.8" width="13.6" height="6.6" fill="#3f3d56" opacity="0.1" style=""/>
    <rect x="98.6" y="59.7" width="18.2" height="6.6" fill="#3f3d56" opacity="0.1" style=""/>
    <rect x="126.2" y="59.7" width="18.2" height="6.6" fill="#3f3d56" opacity="0.1" style=""/>
    <rect x="151.9" y="59.7" width="18.2" height="6.6" fill="#3f3d56" opacity="0.1" style=""/>
    <rect x="180.6" y="59.7" width="18.2" height="6.6" fill="#3f3d56" opacity="0.1" style=""/>
    <rect x="209.7" y="59.7" width="18.2" height="6.6" fill="#3f3d56" opacity="0.1" style=""/>
    <rect x="240.8" y="59.7" width="18.2" height="6.6" fill="#3f3d56" opacity="0.1" style=""/>
    <rect x="105.2" y="95.8" width="11.8" height="11.5" fill="url(#f0ea422a-a980-4a9e-8fad-43c87f6ba738)" style=""/>
    <rect x="105.4" y="95.9" width="11.4" height="11.1" fill="#7cfcff" style=""/>
    <rect x="129.5" y="93.3" width="11.8" height="11.5" fill="url(#ad2c5ae7-cdf4-4789-99a0-6bde37321e66)" style=""/>
    <rect x="129.7" y="93.5" width="11.4" height="11.1" fill="#ffffa5" style=""/>
    <rect x="176.3" y="132.2" width="11.8" height="11.5" fill="url(#af61e5a9-3371-4284-9366-60d451e53b7c)" style=""/>
    <rect x="176.6" y="132.4" width="11.4" height="11.1" fill="#ffffa5" style=""/>
    <rect x="72.3" y="75.3" width="11.8" height="11.5" fill="url(#afe800ea-76fc-42fa-87d3-444aeaebb97e)" style=""/>
    <rect x="72.5" y="75.6" width="11.4" height="11.1" fill="#ffffa5" style=""/>
    <rect x="95.8" y="91.8" width="11.8" height="11.5" fill="url(#a0a14e29-1e29-4199-9658-2a5ebd9bc7a2)" style=""/>
    <rect x="96" y="91.9" width="11.4" height="11.1" fill="#ff69b4" style=""/>
    <rect x="190.1" y="132.1" width="11.8" height="11.5" fill="url(#b9eaa648-e9e9-4a67-ba92-603c001fbd1d)" style=""/>
    <rect x="190.4" y="132.3" width="11.4" height="11.1" fill="#7cfcff" style=""/>
    <rect x="210.9" y="75.6" width="11.8" height="11.5" fill="url(#f05d82f5-c8d6-44fc-8266-fef5229bfdcd)" style=""/>
    <rect x="211.1" y="75.7" width="11.4" height="11.1" fill="#7cfcff" style=""/>
    <rect x="209.6" y="111.9" width="11.8" height="11.5" fill="url(#fed5a35b-50d2-4029-b1da-9e4ece87a2f7)" style=""/>
    <rect x="209.8" y="112.1" width="11.4" height="11.1" fill="#7cfcff" style=""/>
    <rect x="218.6" y="114.4" width="11.8" height="11.5" fill="url(#a057bd9d-3da5-4ef9-9b1f-12de91a9714e)" style=""/>
    <rect x="218.8" y="114.6" width="11.4" height="11.1" fill="#7cfcff" style=""/>
    <rect x="180.8" y="128.1" width="11.8" height="11.5" fill="url(#eb119f49-f305-49d7-b722-178b1b910dac)" style=""/>
    <rect x="181" y="128.3" width="11.4" height="11.1" fill="#ff69b4" style=""/>
    <rect x="182" y="93.6" width="11.8" height="11.5" fill="url(#f18d0c9f-76a8-47d5-9395-c2e15513d6af)" style=""/>
    <rect x="182.2" y="93.7" width="11.4" height="11.1" fill="#ff69b4" style=""/>
    <rect x="40.7" y="95.8" width="13.6" height="6.6" fill="#3f3d56" opacity="0.1" style=""/>
    <rect x="40.7" y="114.4" width="13.6" height="6.6" fill="#3f3d56" opacity="0.1" style=""/>
    <rect x="40.7" y="133.2" width="13.6" height="6.6" fill="#3f3d56" opacity="0.1" style=""/>
    <rect x="40.7" y="151.8" width="13.6" height="6.6" fill="#3f3d56" opacity="0.1" style=""/>
    <rect x="40.7" y="170.6" width="13.6" height="6.6" fill="#3f3d56" opacity="0.1" style=""/>
    <path d="M 82 112.4 C 82.3 112.2 82.2 111.6 81.8 111.4 C 81.4 111.2 80.9 111.2 80.5 111.3 C 80.5 111.1 80.4 110.8 80.2 110.7 L 80.2 110.6 C 80.4 110.4 80.3 109.9 80 109.7 C 79.7 109.4 79.2 109.4 78.8 109.5 C 78.8 108.8 78.7 108.4 78.3 108 C 78.2 107.9 78.1 107.9 78 107.9 C 77.8 107.9 77.7 108.2 77.7 108.5 C 77.7 109.1 77.6 109.7 77.4 110.3 L 69.3 123.7 C 68.5 125 71.2 121.1 70.4 122.4 C 70 123.1 69.3 123.8 68.8 124.3 C 68.3 124.8 67.7 125.3 67 125.6 C 66.6 125.6 66.2 125.5 65.9 125.2 C 65.3 124.8 65 124.5 64.6 124 C 64 123.2 63.3 122.2 62.8 121.3 C 62.6 121 62.5 120.6 62.4 120.2 C 62.3 119.7 62.4 119.2 62.2 118.6 C 62.1 118.4 62 118.2 61.8 118.1 L 61.2 117.3 L 61.2 117.3 C 61.1 116.2 60.3 115.4 59.4 114.6 C 58.8 114 58 113.5 57.1 113.3 C 56.6 113.3 56.1 113.4 55.7 113.3 C 55.2 113.3 54.8 113.1 54.4 112.9 C 54.1 112.9 53.7 112.9 53.2 112.9 L 53.1 112.8 C 54 112.4 54.7 111.9 55.1 111.1 C 55.6 110.5 55.8 109.8 56.1 109.2 C 56.6 108.3 57.1 107.8 57.7 106.9 C 58.8 105.3 59 103 58.6 100.9 C 58.1 98.9 57 97 55.8 95.5 C 53.2 92.2 49.1 91 45.2 91.7 C 45 91.7 44.7 91.8 44.5 91.8 C 43.9 92 43.2 92.2 42.6 92.4 C 41.8 92.7 41 93.4 40.5 94 C 40.4 94.2 40.3 94.5 40.2 94.7 C 40.1 94.8 40.1 95 40 95.3 C 39.9 95.8 39.9 96.4 39.9 97 C 39.9 97.1 40 97.4 40 97.6 L 40 97.9 C 40 98.1 40.1 98.3 40.1 98.4 C 40.1 98.7 40.2 99 40.2 99.4 C 40.2 99.6 40.2 99.8 40.2 100 C 40.2 100 40.2 100.1 40.2 100.1 C 40.2 100.3 40.2 100.4 40.2 100.6 C 40.1 100.7 40.1 100.7 40.1 100.8 C 40 101 39.9 101.3 39.8 101.5 C 39.5 101.8 39.3 102.1 39 102.3 L 38.8 102.5 C 38.8 102.6 38.7 102.7 38.6 102.8 C 38.3 103.2 38.1 103.5 37.9 103.9 C 37.6 104.1 37.5 104.3 37.5 104.5 C 37.4 104.6 37.3 104.8 37.3 104.9 C 37.2 105.2 37.2 105.4 37.1 105.7 C 37.1 105.7 37.1 105.8 37.1 105.8 C 37.1 105.9 37.1 106 37.1 106.1 C 37.1 106.2 37.1 106.3 37.2 106.5 C 37.2 106.6 37.2 106.7 37.2 106.8 C 37.3 106.8 37.3 106.9 37.4 107 C 37.4 107.2 37.4 107.2 37.4 107.2 L 37.4 107.3 C 37.5 107.4 37.5 107.4 37.5 107.5 C 37.6 107.6 37.6 107.6 37.6 107.7 C 37.6 107.8 37.6 107.8 37.6 107.8 C 37.6 107.8 37.6 107.9 37.6 107.9 C 37.6 108.1 37.4 108.4 37.2 108.5 C 37.2 108.6 37.1 108.6 37.1 108.7 L 37 108.7 L 36.9 108.8 L 36.7 108.9 C 36.6 109.2 36.4 109.3 36.3 109.4 C 34.9 109.3 33.4 109.5 32.1 109.8 C 31.5 110 31 110.1 30.5 110.1 C 30.3 110.1 30 110 29.9 109.8 C 29.8 109.6 29.8 109.4 29.8 109.2 C 29.9 108.3 29.6 107.5 29.3 106.7 C 29.2 106.4 29.1 106.2 28.9 106.1 C 28.7 105.9 28.5 105.9 28.3 106 C 28.7 107.5 28.6 108.9 28.1 110.3 C 27.8 110.9 27.4 111.6 27.1 112.2 C 26.5 113.2 26.2 114.3 25.6 115.4 C 26.3 117.3 26.1 119.4 26.4 121.5 C 26.7 123.4 27.3 125.2 28.1 127 C 28.5 128.3 29.1 129.7 30.2 130.6 C 30.5 131.1 31 131.3 31.4 131.3 C 31.9 131.2 32.2 131.1 32.5 130.9 C 32.8 130.6 33.1 130.4 33.3 130.2 C 33.4 130.1 33.5 130 33.6 129.9 C 33.6 130 33.8 130.2 33.9 130.3 C 34.5 129.1 35.1 127.7 35.9 126.4 C 36.1 126.3 36.3 126.1 36.5 126 C 36.5 126 36.5 126.1 36.5 126.1 C 36.5 126.2 36.5 126.4 36.4 126.5 C 36.4 126.6 36.4 126.7 36.3 126.8 C 36.3 127 36.3 127.1 36.3 127.1 C 36.2 127.2 36.2 127.3 36.1 127.4 C 36.1 127.5 36.1 127.7 36 127.7 C 36 127.8 36 127.9 36 128 C 35.9 128.2 35.8 128.3 35.6 128.5 C 35.8 128.6 35.9 128.6 35.9 128.6 L 36 128.6 C 36 128.6 36.1 128.6 36.1 128.7 L 36.2 128.7 C 36.3 128.7 36.3 128.7 36.4 128.7 L 36.4 128.7 L 36.6 128.7 C 36.8 128.7 36.9 128.6 37.1 128.6 L 37.2 129.1 C 37.4 130 37.6 131 37.8 131.9 C 37.8 133 37.5 134 37.8 135.1 C 37.9 135.6 38.1 136.2 38.2 136.7 C 38.2 137.3 38.2 137.8 38.2 138.3 C 38 139.6 38 140.9 37.8 142 C 37.8 142.5 37.6 143 37.4 143.4 C 37.2 143.7 37 144 37.1 144.3 C 37.4 144.2 37.8 144.2 38.1 144.2 C 38 144.5 37.9 145 37.8 145.4 C 37.6 145.7 37.6 146 37.8 146.3 C 37.8 146.6 38 146.9 38 147.2 C 38 147.6 37.8 148 37.5 148.4 C 37 149.6 37.5 150.8 38.1 151.9 L 39.4 155.1 L 40.6 157.7 C 40.9 158.4 41.3 159.3 41.7 160 C 43.1 163.7 44.4 167.4 45.3 171.2 C 45.3 171.3 45.4 171.5 45.5 171.6 C 45.8 171.9 46.1 171.9 46.4 172.1 C 47.2 172.6 47.3 174 46.5 174.7 C 46.7 176.6 45.2 178.5 44.5 180.1 C 42.8 184.2 43.1 188.9 42.5 193.3 L 43.2 193 C 43.2 193 43.3 193 43.4 193.1 C 43.4 193.2 43.3 193.2 43.3 193.3 C 43.2 193.7 43.1 194 42.9 194.4 C 42.6 195.1 42 195.6 41.9 196.5 C 41.8 196.9 42 197.3 42 197.8 C 42 197.8 42 197.8 42 197.9 C 41.9 197.8 41.8 197.8 41.7 197.9 C 41.4 198.3 41.3 198.5 41.2 198.8 C 41.1 199.1 41 199.4 40.9 199.7 L 40.6 201 C 40.4 201.6 40.2 202.4 39.9 203.1 C 39.7 203.5 39.4 203.9 39.3 204.5 C 39.2 204.9 39.1 205.3 39.2 205.6 C 39.1 206 39.2 206.5 39.3 206.8 C 39.7 207.5 40.3 208.2 41 208.4 C 41.8 208.7 42.6 208.8 43.3 208.9 C 43.5 208.9 43.8 208.9 44 208.9 C 44.2 208.8 44.4 208.7 44.6 208.6 C 45.7 207.7 46.2 206.3 46.3 205 C 46.3 204.7 46.2 204.4 46.2 204.1 C 46.2 202.7 46 201.2 46.1 199.7 C 46.2 199.9 46.2 200 46.2 200.3 L 46.5 201.8 C 46.5 201.8 46.4 201.7 46.4 201.7 C 46.2 202.4 46.2 203 46.3 203.6 C 46.4 204.3 46.6 204.8 46.8 205.4 L 47.1 206.4 C 47.2 206.7 47.3 207 47.5 207.2 C 47.9 207.5 48.4 207.6 48.8 207.7 C 49.8 208 50.7 208.3 51.8 208.3 C 51.9 208.3 52 208.3 52.1 208.3 C 52.2 208.2 52.2 208.2 52.3 208 C 52.4 207.9 52.5 207.9 52.6 207.9 C 53 207.6 53.3 207.3 53.4 206.8 C 53.7 206.4 53.6 205.8 53.3 205.4 C 53.1 205.3 53 205.1 52.9 205 L 51.1 203.1 C 50.9 202.8 50.6 202.5 50.3 202.1 C 50.2 202.1 50.1 202 50 202.1 C 49.6 200.9 49.6 199.5 49.7 198.3 C 49.7 197.8 50 197 50 196.4 C 50.3 196.3 50.6 196 50.9 195.8 C 51.2 195.6 51.3 195.4 51.4 195 C 52.4 190.6 53.8 186.1 55.1 181.7 C 55.2 181.3 55.3 180.9 55.6 180.5 C 55.6 180.2 55.7 180 55.7 179.9 C 55.8 179.7 55.8 179.6 55.8 179.4 C 55.9 179.2 56 178.9 56 178.7 C 56 178.7 56.1 178.6 56.1 178.5 C 56.1 178.5 56.1 178.5 56.1 178.5 C 56.2 178.1 56.2 177.8 56.3 177.5 C 56.4 177.4 56.4 177.2 56.4 177.1 C 56.5 176.8 56.6 176.3 56.7 175.9 C 56.7 175.8 56.7 175.8 56.7 175.7 C 56.8 175.6 56.8 175.4 56.7 175.3 L 56.7 175.3 L 56.7 175.3 C 56.7 175.3 56.7 175.2 56.6 175.2 C 56.6 175.1 56.6 175.1 56.5 175.1 C 56.5 175.1 56.5 175 56.4 175 C 56.4 174.9 56.3 174.8 56.3 174.7 C 56.3 174.6 56.3 174.3 56.3 174.2 C 56.3 174.1 56.3 174 56.2 173.9 C 56.3 173.7 56.3 173.5 56.4 173.4 C 56.4 173.3 56.4 173.2 56.4 173.1 C 56.5 173 56.5 172.8 56.6 172.7 C 56.7 172.6 56.8 172.2 56.8 172 C 56.9 171.6 57.1 171.3 57.3 170.9 C 57.6 170.4 57.8 170.1 57.8 169.6 C 57.8 169.2 57.8 168.9 57.7 168.4 C 57.3 166.8 58.2 165.2 58.7 163.6 C 59.1 162.4 59.4 161.2 59.7 159.9 C 59.9 159.1 60 158 60.5 157.3 C 60.6 157.1 60.7 156.8 60.8 156.5 C 60.9 156.2 61 156 61 155.7 C 61 154.5 61.3 153.5 61.8 152.4 C 61.9 152.2 62 152 62 151.8 C 62 151.8 62 151.8 62 151.7 L 62 151.7 L 62.2 151.7 C 62.4 150.2 62.6 148.6 62.4 147.3 C 62.2 145.6 61.5 144.1 60.2 143 L 60.2 143 C 60.6 142.8 60.8 142.2 60.8 141.8 C 60.8 141 60.5 140.3 60 139.9 C 59.8 139.8 59.8 139.7 59.7 139.5 C 59.6 139.4 59.6 139.3 59.6 139.1 C 59.7 138.2 59.1 137.5 58.3 137.2 C 58.2 137.2 58.2 137.1 58.1 137.1 C 58 137 58 136.7 58 136.6 C 58.1 135.8 57.7 135.1 56.9 134.5 C 57 134 57.1 133.5 56.9 133 C 56.8 132.4 56.3 131.9 55.8 132 C 56.2 130.7 55.6 129.4 55.8 128.1 C 55.9 127.5 56 127 56.1 126.4 C 56.1 125.9 56 125.4 56.2 125 C 56.5 124.4 57 124.1 56.9 123.7 C 56.8 123.5 56.6 123.3 56.6 123.1 C 56.5 122.8 56.8 122.5 57 122.6 C 57.1 122.6 57.1 122.5 57.2 122.4 C 57.2 122.7 57.3 123 57.4 123.3 C 57.6 123.7 57.8 124 57.9 124.4 C 58.1 125.1 58.1 125.8 58.4 126.4 C 58.9 127.4 60.1 127.8 60.7 128.5 C 61.2 129.1 61.6 129.6 62 130 C 62.3 130.3 62.6 130.6 63 130.9 L 65.5 132.4 C 65.7 132.5 66 132.6 66.2 132.7 C 67 133 67.8 132.4 67.9 131.6 C 67.7 131.5 67.5 131.4 67.2 131.3 C 67.3 131.3 67.3 131.3 67.3 131.3 C 68 131.1 68.4 130.9 68.9 130.4 C 70.6 129.1 71.8 127.3 73 125.5 C 74.2 123.6 80.2 118.5 80.2 118.5 L 80.2 116.5 C 80.9 116.1 81.6 115.5 82.2 114.8 C 82.5 114.5 82.6 114 82.6 113.6 C 82.7 113.1 82.4 112.6 82 112.4 Z M 32.3 117.3 C 32.2 118 32.1 118.7 31.9 119.5 C 31.8 120.3 31.4 121.2 31.2 122 L 31.1 122.2 C 31 122.1 30.9 121.9 30.8 121.8 C 30.6 121.4 30.5 121 30.4 120.5 L 29.3 117.9 C 29.2 117.5 29.1 117.2 29.3 116.8 C 29.4 116.6 29.6 116.4 29.9 116.3 C 30.5 116.1 31.2 115.8 32 115.6 C 32.3 115.6 32.5 115.5 32.7 115.5 C 32.5 116.1 32.4 116.6 32.3 117.3 Z M 33.4 114 C 33.3 113.9 33.3 113.7 33.4 113.6 C 33.4 113.5 33.5 113.5 33.6 113.5 L 33.8 113.4 C 33.6 113.6 33.5 113.8 33.4 114 Z M 35.4 111.1 C 35.1 111.4 34.9 111.6 34.7 111.9 C 34.4 112.2 34.2 112.5 34 112.9 C 34.1 112.6 34 112.3 33.8 112.2 C 33.6 112.1 33.5 112.1 33.4 112 C 33.2 111.8 33.3 111.5 33.5 111.3 C 33.8 111.1 34.1 110.9 34.4 110.9 L 35.5 110.7 C 35.5 110.8 35.4 110.9 35.4 111.1 Z M 46.5 196.8 C 46.5 196.5 46.5 196 46.5 195.7 C 46.6 195.7 46.7 195.7 46.9 195.7 C 46.7 196 46.6 196.5 46.5 196.8 Z" fill="url(#e96273f1-ace8-4241-9189-48d1ceb051fa)" style=""/>
    <path d="M 45.3 92.4 C 43.2 92.7 41 93.6 40.2 95.5 C 39.7 96.9 40.1 98.5 40.2 100.1 C 40.3 100.5 40.3 100.9 40.2 101.4 C 40 102 39.5 102.5 39 103 C 38.5 103.7 38 104.4 37.5 105.3 C 37.1 106.1 37 107 37.4 107.9 C 37.5 108.1 37.6 108.3 37.6 108.5 C 37.6 109.1 37.1 109.5 36.7 109.8 C 35.2 111.1 35.2 113.4 35.2 115.4 C 35.2 119.5 34.3 123.5 32.6 127.2 C 34 127.8 35.5 127.7 36.6 126.6 C 36.4 127.6 36.1 128.4 35.8 129.3 C 37 129.9 38.6 128.8 39.2 127.6 C 39.9 126.3 40 124.8 40.4 123.5 C 40.9 122.1 41.8 120.8 42.1 119.5 C 42.2 119.1 42.3 118.5 42.5 118.2 C 42.7 117.9 43 117.7 43.3 117.5 C 44.7 116.5 45.7 115.2 46.3 113.6 C 47.9 113.9 49.4 114.2 51.1 114.1 C 52.7 114 54.4 113.3 55.2 111.8 C 55.7 111.3 55.9 110.5 56.2 109.9 C 56.6 109.2 57.2 108.5 57.8 107.8 C 58.8 106 59 103.8 58.6 101.7 C 58.1 99.7 57 97.8 55.8 96.2 C 53.3 92.9 49.2 91.8 45.3 92.4 Z" fill="#303d5c" style=""/>
    <path d="M 32.4 118.1 C 32.3 118.7 32.2 119.5 32 120.2 C 31.8 121.1 31.5 121.9 31.2 122.7 C 31.1 123.1 31 123.5 31 123.9 C 31.1 124.1 31.2 124.3 31.3 124.5 C 32.3 126.2 33.5 127.8 33.6 129.7 C 33.6 130.2 33.6 130.6 33.9 131.1 C 34.6 129.6 35.3 128 36.3 126.5 C 37.1 125 38.2 123.5 38.5 121.7 C 38.6 120.8 38.5 120 38.4 119.2 C 38.3 118.2 38.1 117.3 37.5 116.5 C 36.9 115.7 35.2 114.4 34.1 114.7 C 32.8 115.1 32.5 117.1 32.4 118.1 Z" fill="#f99426" style=""/>
    <path d="M 65.5 127.1 C 66.6 126.5 67.9 126 68.8 125.1 C 69.5 124.5 70 123.9 70.4 123.2 L 73.2 118.9 C 74 118 74.7 116.9 74.8 115.8 C 76.5 114 77.6 111.7 77.7 109.3 C 77.8 108.9 77.8 108.6 78.1 108.6 C 78.2 108.6 78.3 108.7 78.3 108.7 C 78.7 109.2 78.9 109.7 78.8 110.2 C 79.2 110.1 79.7 110.1 80.1 110.4 C 80.4 110.6 80.5 111.3 80.1 111.5 C 80.4 111.6 80.5 111.8 80.5 112 C 80.9 112 81.5 111.9 81.8 112.1 C 82.2 112.3 82.4 112.9 82 113.3 C 82.4 113.4 82.7 113.8 82.7 114.3 C 82.7 114.7 82.5 115.3 82.2 115.6 C 81.1 117.1 79.1 117.7 77.9 119.1 C 77.5 119.5 77 120 76.7 120.5 L 73 126.2 C 71.9 128 70.6 129.8 68.9 131.2 C 68.5 131.5 68 131.8 67.5 131.9 C 66.8 132.1 66.3 131.9 65.8 131.5 C 65.5 131.1 65.5 130.5 65.3 129.9 C 65.3 129 65.5 128 65.5 127.1 Z" fill="#ee8e9e" style=""/>
    <path d="M 52.9 205.5 C 53.1 205.7 53.2 205.8 53.3 206 C 53.6 206.5 53.7 207 53.6 207.4 C 53.3 207.9 53 208.3 52.6 208.5 C 52.5 208.6 52.4 208.6 52.3 208.7 C 52.3 208.7 52.2 208.8 52.2 208.8 C 52.1 208.9 51.9 208.9 51.8 208.9 C 50.8 208.8 49.8 208.7 48.8 208.4 C 48.4 208.3 48 208.2 47.7 207.8 C 47.4 207.5 47.3 207.3 47.2 207 L 46.8 206 C 46.6 205.4 46.5 204.8 46.3 204.3 C 46.2 203.6 46.2 203 46.4 202.4 C 46.5 202.5 46.5 202.6 46.5 202.7 C 46.6 203.4 46.9 204 47.3 204.6 C 47.3 204.7 47.4 204.8 47.5 204.9 C 47.9 205.1 48.2 205.2 48.5 205.3 C 49 205.4 49.7 205.5 50.3 205.5 C 50.4 205.5 50.5 205.5 50.6 205.5 C 50.7 205.4 50.7 205.3 50.8 205.2 C 50.9 205 50.9 204.7 50.8 204.5 C 50.6 203.9 50.2 203.6 50 203.2 C 49.8 202.9 50 202.6 50.3 202.8 C 50.6 203.1 50.9 203.4 51.2 203.7 Z" fill="#303d5c" style=""/>
    <path d="M 49.8 198.8 C 49.7 200.5 49.6 202.1 50.4 203.4 C 50.7 203.8 51.1 204.3 51.4 204.7 C 51.7 205 51.9 205.2 51.9 205.5 C 52 206 51.3 206.6 50.8 206.7 C 50.3 206.8 49.7 206.6 49.1 206.5 C 48.6 206.4 48.1 206 47.7 205.7 C 46.9 205.1 46.7 204 46.6 203.1 L 46.3 200.9 C 46 199.7 46.1 198.6 46.6 197.5 L 47.1 195.8 C 47.2 195.6 47.2 195.5 47.4 195.4 C 47.5 195.3 47.7 195.3 47.9 195.3 C 48.4 195.3 49.8 195.5 50.1 196.1 C 50.3 196.7 49.8 198.3 49.8 198.8 Z" fill="#ee8e9e" style=""/>
    <path d="M 49.8 198.8 C 49.7 200.5 49.6 202.1 50.4 203.4 C 50.7 203.8 51.1 204.3 51.4 204.7 C 51.7 205 51.9 205.2 51.9 205.5 C 52 206 51.3 206.6 50.8 206.7 C 50.3 206.8 49.7 206.6 49.1 206.5 C 48.6 206.4 48.1 206 47.7 205.7 C 46.9 205.1 46.7 204 46.6 203.1 L 46.3 200.9 C 46 199.7 46.1 198.6 46.6 197.5 L 47.1 195.8 C 47.2 195.6 47.2 195.5 47.4 195.4 C 47.5 195.3 47.7 195.3 47.9 195.3 C 48.4 195.3 49.8 195.5 50.1 196.1 C 50.3 196.7 49.8 198.3 49.8 198.8 Z" opacity="0.05" style=""/>
    <path d="M 62.1 152.4 C 62.1 152.4 62.1 152.4 62.1 152.4 C 62 152.8 62 153 61.9 153.2 C 61.3 154.1 61.1 155.3 61 156.3 C 61 156.7 61 157 60.9 157.2 C 60.8 157.5 60.7 157.7 60.5 157.9 C 60 158.8 59.9 159.7 59.8 160.7 C 59.4 161.8 59.1 163.1 58.8 164.2 C 58.2 165.8 57.4 167.4 57.7 169.1 C 57.8 169.5 57.9 169.9 57.9 170.3 C 57.8 170.8 57.6 171.2 57.3 171.5 C 57.1 171.9 57 172.3 56.8 172.8 C 56.7 173.2 56.5 173.6 56.4 174 C 56.3 174.6 56.2 175.2 56.5 175.6 C 56.6 175.7 56.7 175.8 56.8 176 C 56.8 176.1 56.8 176.3 56.8 176.6 C 56.6 177.4 56.4 178.2 56.1 179.1 C 56 179.8 55.8 180.5 55.6 181.1 C 54.1 185.9 52.5 190.8 51.6 195.7 C 51.3 196.4 50.5 196.9 49.8 197.1 C 49 197.2 48.3 197 47.8 196.6 C 47.7 196.5 47.7 196.5 47.7 196.4 C 46.9 195.6 46.7 194.4 46.8 193.3 C 47.1 188.1 49.7 183.5 50.8 178.6 C 51.2 176.8 51.6 175 51.7 173.1 C 52 167 52.1 160.4 50.3 154.5 C 50 153.3 49.6 151.9 50.2 150.8 C 50.6 150.1 51.3 149.7 52.1 149.4 C 55.2 148.2 58.7 148.3 61.7 149.7 C 61.7 149.8 61.7 149.9 61.7 150 C 61.7 150.5 61.7 151.2 61.9 151.7 C 62 151.9 62 152.2 62.1 152.4 Z" fill="#303d5c" style=""/>
    <path d="M 41 200.5 L 40.7 201.6 C 40.5 202.4 40.3 203 40 203.6 C 39.8 204.1 39.5 204.6 39.3 205.1 C 39.2 205.5 39.2 205.9 39.2 206.4 C 39.2 206.7 39.3 207.1 39.4 207.4 C 39.8 208.3 40.3 208.8 41.1 209.1 C 41.9 209.3 42.6 209.4 43.4 209.5 C 43.7 209.5 43.9 209.5 44.1 209.4 C 44.3 209.4 44.5 209.3 44.6 209.2 C 45.7 208.4 46.3 206.9 46.4 205.5 C 46.3 205.3 46.3 205 46.2 204.7 C 46.1 204.6 45.2 205 45.7 205.4 C 46.2 205.9 44.6 205.6 43.9 205.6 C 43.5 205.6 43.2 205.5 42.8 205.4 L 41.7 205.2 C 41.2 205.1 40.7 205 40.6 204.6 C 40.5 204.1 40.8 203.7 41 203.3 C 41.7 202.4 41.9 201.1 42 199.9 C 42 199.7 42.3 198.1 41.7 198.7 C 41.4 198.9 41.3 199.1 41.2 199.4 C 41.1 199.7 41 200 41 200.5 Z" fill="#303d5c" style=""/>
    <path d="M 56.5 175.6 C 56.1 175.2 56.2 174.6 56.4 174 C 56.4 173.8 56.5 173.6 56.6 173.4 L 51.7 171.8 C 51.7 172.2 51.7 172.7 51.7 173.1 C 51.6 175 51.2 176.8 50.8 178.6 C 49.7 183.5 47 188.1 46.8 193.2 C 46.7 194.5 46.9 195.7 47.8 196.6 C 48.3 197 49 197.2 49.8 197.1 C 50.5 196.9 51.3 196.4 51.6 195.7 C 52.5 190.8 54.1 185.9 55.6 181.1 C 56 179.6 56.4 178.1 56.8 176.6 C 56.8 176.3 56.8 176.1 56.8 176 C 56.7 175.8 56.6 175.7 56.5 175.6 Z" opacity="0.05" style=""/>
    <path d="M 43 195 C 42.6 195.7 42 196.3 41.9 197.1 C 41.9 197.5 42 197.9 42 198.5 C 42 198.8 41.9 199.2 41.8 199.6 C 41.3 201.3 40.8 203 40.2 204.7 C 40.1 204.9 40 205.1 40 205.4 C 40.1 205.7 40.5 206 40.8 206.2 C 42 206.7 43.3 206.6 44.6 206.6 C 44.9 206.6 45.3 206.5 45.7 206.4 C 46.1 206 46.2 205.4 46.2 204.9 C 46.3 203.3 46.1 201.6 46.2 200 C 46.3 199.5 46.4 199 46.5 198.4 C 46.6 197.6 46.7 196.8 46.4 195.9 C 46.2 195.4 45.9 195 45.5 194.5 C 45.2 194 44.8 193.6 44.3 193.2 C 44.2 193.1 43.7 192.9 43.5 193.1 C 43.4 193.1 43.5 193.4 43.5 193.5 C 43.4 193.6 43.4 193.8 43.4 193.9 C 43.3 194.4 43.1 194.7 43 195 Z" fill="#ee8e9e" style=""/>
    <path d="M 52.4 154.4 C 52.2 154.8 52.2 155.2 52.3 155.5 C 52.4 156.2 52.7 156.9 52.9 157.5 C 53.2 158.8 53.6 159.9 53.8 161.1 C 54 162.2 54.4 163.5 54.2 164.6 C 55.6 167.1 56.5 169.9 56.8 172.8 C 56.9 173.4 55.3 174.3 55.3 175.1 C 55.4 176.6 56.6 176.8 55.8 177.9 C 55.7 177.9 56 179.3 56 179.3 C 55.7 179.7 55.1 180 54.8 180.5 C 54.3 181 53.9 181.6 53.6 182.2 C 51.3 186.4 48.2 190.9 49.1 195.3 C 49.1 195.7 49 196 48.7 196.1 C 48.4 196.3 48.1 196.4 47.8 196.4 L 47.5 196.4 C 46.8 195.6 46.7 194.4 46.8 193.2 C 47 188.1 49.7 183.5 50.8 178.6 C 51.2 176.8 51.6 175 51.7 173.1 C 52 167 52.1 160.4 50.3 154.5 C 50 153.3 49.4 151.9 50.2 150.8 C 50.6 150.1 51.3 149.7 52.1 149.4 C 55.1 148.2 58.6 148.2 61.7 149.6 C 61.7 149.8 61.7 149.9 61.7 150 C 61.6 150.5 61.7 151.2 61.9 151.7 C 62 151.9 62 152.2 62.1 152.4 C 62.1 152.4 62.1 151.5 62.1 151.5 C 60.2 151.7 58.1 153.1 56.1 153.4 C 55 153.5 54 153.7 53 154 C 52.7 154.1 52.5 154.2 52.4 154.4 Z" opacity="0.05" style=""/>
    <path d="M 38.5 143.5 C 38.3 144.3 38.1 145.3 37.9 146.1 C 37.8 146.4 37.8 146.8 37.8 147.1 C 37.9 147.4 38 147.6 38.1 147.9 C 38.1 148.3 37.8 148.8 37.5 149.2 C 37.1 150.3 37.6 151.5 38.1 152.5 L 39.5 155.8 L 40.7 158.4 C 41 159.2 41.3 159.9 41.8 160.8 C 43.2 164.3 44.5 168 45.4 171.8 C 45.4 172 45.5 172.1 45.5 172.3 C 45.8 172.6 46.2 172.7 46.4 172.8 C 47.3 173.3 47.4 174.7 46.6 175.3 C 46.7 177.2 45.3 179.1 44.6 180.9 C 42.8 185 43.1 189.6 42.6 194 L 43.2 193.6 C 43.9 193.9 43.9 194.8 44.2 195.4 C 44.7 196.4 46 196.5 47 196.4 C 47.3 196.4 47.7 196.3 48 196.1 C 48.3 196 48.4 195.7 48.4 195.3 C 47.4 190.9 50.6 186.4 52.8 182.2 C 53.1 181.6 53.6 181 54.1 180.5 C 54.5 180 54.9 179.7 55.2 179.3 C 56.3 178.1 56.4 176.5 56.3 175 C 56.2 171.3 55.2 167.8 53.6 164.6 C 53.7 163.5 53.2 162.2 53 161.1 C 52.8 159.9 52.6 158.8 52.2 157.5 C 52 156.9 51.8 156.2 51.6 155.5 C 51.4 155.2 51.4 154.8 51.7 154.4 C 51.8 154.2 52.1 154.1 52.3 154 C 53.2 153.7 54.3 153.5 55.3 153.4 L 62.2 152.3 C 62.4 151 62.6 149.4 62.5 147.9 C 62.2 145.3 60.2 143.1 57.7 142.3 C 57.3 142.2 56.9 142.1 56.7 142.3 C 50.7 141.2 44.4 141.6 38.5 143.5 Z" fill="#303d5c" style=""/>
    <path d="M 44.8 106.4 C 44.9 107 44.8 107.8 44.5 108.4 C 44.3 108.7 44 108.9 43.7 109.3 C 43 109.8 42.3 110.1 41.4 110.3 C 40.9 110.5 40.4 110.5 40.1 110.9 C 39.7 111.6 40 112.4 40.4 113.1 C 41 114.1 42.1 115.2 43.3 115.5 C 44.4 115.8 45.4 115.6 46.5 115.8 C 47.2 115.9 47.9 116.2 48.6 116.4 C 50.8 116.8 53 116.3 54.6 114.7 C 53.4 113.9 52.4 112.9 51.8 111.7 C 51.3 110.8 51.3 109.8 51.6 108.8 C 51.9 107.9 52.4 106.9 52.2 106 C 52.1 105 51.1 104.4 50.2 104.1 C 49.3 103.9 48.5 103.7 47.5 103.6 C 47.1 103.5 44.1 102.8 43.9 103.2 C 43.8 103.4 44.4 104.5 44.5 104.7 C 44.6 105.3 44.7 105.9 44.8 106.4 Z" fill="#ee8e9e" style=""/>
    <circle cx="48.6" cy="102.4" r="6.2" fill="#ee8e9e" style=""/>
    <path d="M 45.3 112.7 L 49.6 113.5 C 50.6 113.6 51.7 113.8 52.7 113.8 C 53.3 113.7 53.9 113.7 54.5 113.8 C 54.9 113.8 55.2 114 55.7 114 C 56.2 114.1 56.7 114 57.1 114 C 58.1 114.2 58.8 114.8 59.6 115.4 C 60.4 116.1 61.2 116.9 61.2 118 C 61.3 118.2 61.2 118.2 61.2 118.4 C 61.1 118.5 61 118.6 60.9 118.7 C 60.2 119.4 59.8 120.3 59.1 121.2 C 58.6 122 57.9 122.7 57 123.4 C 56.9 123.3 56.5 123.6 56.6 123.8 C 56.7 124 56.9 124.1 56.9 124.3 C 57.1 124.8 56.5 125.2 56.3 125.7 C 56 126.1 56.1 126.6 56.1 127.2 C 56.1 127.7 55.9 128.2 55.8 128.7 C 55.7 130.1 56.3 131.5 55.8 132.6 C 56.4 132.6 56.9 133.1 57 133.6 C 57.1 134.2 57 134.7 56.9 135.3 C 57.7 135.7 58.1 136.5 58.1 137.4 C 58 137.6 58.1 137.8 58.3 137.9 C 59.1 138.2 59.7 139 59.7 139.8 C 59.7 140 59.7 140.1 59.7 140.2 C 59.8 140.3 59.9 140.5 60 140.5 C 60.6 141.1 60.9 141.7 60.9 142.4 C 60.9 143 60.7 143.5 60.3 143.7 C 59.3 144.1 58.4 144.3 57.4 144.5 C 56.5 144.8 55.6 145 54.6 145.1 C 53.8 145.1 52.9 145.2 52.1 145.2 L 46.5 145.1 C 44.8 145.1 43.2 145.1 41.7 145 C 40.2 144.9 38.7 144.8 37.2 145.1 C 37 144.8 37.3 144.4 37.5 144.1 C 37.8 143.7 37.9 143.3 37.9 142.9 L 38.2 139.1 C 38.3 138.5 38.3 138 38.2 137.5 C 38.2 137 38 136.4 37.9 135.8 C 37.6 134.7 37.9 133.7 37.8 132.6 C 37.6 131.7 37.5 130.7 37.2 129.8 L 36.2 125.2 C 36 124.4 35.9 123.6 35.6 122.8 C 34.7 120.6 33.9 118.4 32.9 116.3 C 32.8 116.1 32.8 115.9 32.9 115.7 L 33.9 114 C 34.2 113.6 34.4 113.1 34.7 112.6 C 35.5 111.7 36.6 110.9 37.9 110.7 C 39.1 110.5 40.4 110.6 41.5 111.3 C 42 111.5 42.4 111.8 42.8 112 C 43.7 112.4 44.5 112.7 45.3 112.7 Z" fill="#f99426" style=""/>
    <path d="M 60.4 116.8 L 61.9 118.7 C 62 118.9 62.1 119.2 62.2 119.4 C 62.4 119.9 62.3 120.4 62.4 121.1 C 62.5 121.4 62.6 121.7 62.8 122 C 63.3 123 64 123.9 64.7 124.7 C 65 125.3 65.5 125.6 65.9 125.9 C 66.3 126.2 66.9 126.3 67.5 126.2 C 67.2 126.3 67 126.4 66.9 126.6 C 66.4 127.8 66.3 129.1 66.5 130.3 C 66.6 130.7 66.7 131.2 66.9 131.5 C 67.1 131.9 67.5 132.2 67.9 132.3 C 67.8 133.2 67 133.6 66.3 133.5 C 66 133.4 65.7 133.3 65.5 133.1 L 63.1 131.6 C 62.7 131.4 62.4 131.1 62 130.7 C 61.6 130.3 61.2 129.7 60.8 129.3 C 60.1 128.5 59 128 58.5 127.1 C 58.2 126.5 58.1 125.8 57.9 125.2 C 57.8 124.7 57.6 124.4 57.4 123.9 C 57 122.6 57.3 121.3 58 120 C 58.5 118.8 59.4 117.9 60.4 116.8 Z" fill="#f99426" style=""/>
    <path d="M 54.8 98.8 C 54.2 98 53.4 97.1 52.6 96.5 C 51.4 95.7 50.1 94.9 48.6 94.9 C 48.1 94.8 47.4 94.9 46.9 95.1 C 46.8 93.5 46.4 92.3 45.3 92.4 C 43.2 92.7 41 93.6 40.2 95.5 C 39.7 96.9 40.1 98.5 40.2 100.1 C 40.3 100.5 40.3 100.9 40.2 101.4 C 40 102 39.5 102.5 39 103 C 38.5 103.7 38 104.4 37.5 105.3 C 37.1 106.1 37 107 37.4 107.9 C 37.5 108.1 37.6 108.3 37.6 108.5 C 37.6 109.1 37.1 109.5 36.7 109.8 C 35.2 111.1 35.2 113.4 35.2 115.4 C 35.2 119.5 34.3 123.5 32.6 127.2 C 34 127.8 35.5 127.7 36.6 126.6 C 36.4 127.6 36.1 128.4 35.8 129.3 C 37 129.9 38.6 128.8 39.2 127.6 C 39.9 126.3 40 124.8 40.4 123.5 C 40.9 122.1 41.8 120.8 42.1 119.5 C 42.2 119.1 42.3 118.5 42.5 118.2 C 42.7 117.9 43 117.7 43.3 117.5 C 44.7 116.5 42.7 109.3 43.2 107.7 C 44 107.8 45.4 104.1 46.3 100.2 C 46.8 100.4 47.4 100.5 48.1 100.4 C 48.3 100.3 48.5 100.3 48.7 100.3 C 48.9 100.4 49 100.4 49.2 100.6 C 49.9 100.9 50.5 101.3 51.1 101.6 C 52.5 102.1 54 102 55.4 101.9 C 55.6 100.8 55.3 99.8 54.8 98.8 Z" fill="#303d5c" style=""/>
    <g opacity="0.1" transform="matrix(0.256169, 0, 0, 0.256169, 2.948626, 22.505255)" style="">
      <path d="M152.26,475a110.41,110.41,0,0,0,10.44-46.15c.05-7.8-.21-16.86,5.8-21.83,1.6-1.33,3.78-2.65,3.68-4.73a7.51,7.51,0,0,0-1-2.69c-1.49-3.18-1-7,.4-10.2a35,35,0,0,1,6.1-8.54c1.75-2,3.58-4.07,4.23-6.64a14.22,14.22,0,0,0,.18-4.83c-.6-6.09-2.38-12.47-.07-18.14,3-7.26,11.39-10.37,19.19-11.73a4.39,4.39,0,0,0-2.1-.14c-8,1.29-16.9,4.37-20,11.87-2.31,5.67-.52,12.05.07,18.14a14,14,0,0,1-.17,4.83c-.66,2.57-2.48,4.65-4.24,6.64a35.21,35.21,0,0,0-6.09,8.54c-1.44,3.2-1.9,7-.41,10.2a7.35,7.35,0,0,1,1,2.69c.1,2.08-2.08,3.4-3.68,4.73-6,5-5.75,14-5.8,21.83A110.71,110.71,0,0,1,149.4,475a13.68,13.68,0,0,0,7.73,1.45A13.2,13.2,0,0,1,152.26,475Z" transform="translate(-33.81 -66.43)"/>
      <path d="M164.45,483.22A52.55,52.55,0,0,0,168,472.9a13.34,13.34,0,0,1-3.46,2.29,52.32,52.32,0,0,1-3,8,7.6,7.6,0,0,0,4.7.6A7.47,7.47,0,0,1,164.45,483.22Z" transform="translate(-33.81 -66.43)"/>
      <path d="M208.08,350.1a16.77,16.77,0,0,1,4.64-1.08l-.55,0a16.29,16.29,0,0,0-4.11.31C208.07,349.55,208.08,349.82,208.08,350.1Z" transform="translate(-33.81 -66.43)"/>
      <path d="M224.65,374.9a54.55,54.55,0,0,1-7.37-3.79,6.4,6.4,0,0,0-2.17-.88,7.49,7.49,0,0,0-2.26.14,9.26,9.26,0,0,1,1.56.74,54.67,54.67,0,0,0,7.38,3.79,33,33,0,0,0,12.34,1.6A28.94,28.94,0,0,1,224.65,374.9Z" transform="translate(-33.81 -66.43)"/>
      <path d="M205.71,369.71c0,.22-.09.44-.14.66a15.12,15.12,0,0,0,3.62.1A16,16,0,0,1,205.71,369.71Z" transform="translate(-33.81 -66.43)"/>
    </g>
    <path d="M 34.1 129.2 C 34.1 129.8 33.9 130.4 33.4 131 C 33.1 131.2 32.9 131.4 32.5 131.6 C 32.3 131.8 31.9 131.9 31.5 132 C 31 131.9 30.6 131.8 30.2 131.4 C 29.1 130.4 28.6 129.1 28.1 127.7 C 27.4 125.9 26.7 124.1 26.5 122.2 C 26.2 120.1 26.3 118.1 25.6 116.1 C 26.2 115.1 26.6 113.9 27.1 112.9 C 27.5 112.3 27.9 111.7 28.2 111.1 C 28.7 109.7 28.7 108.2 28.3 106.8 C 28.5 106.6 28.8 106.7 29 106.8 C 29.2 106.9 29.3 107.2 29.4 107.5 C 29.8 108.2 29.9 109.1 29.8 109.9 C 29.8 110.1 29.8 110.4 29.9 110.5 C 30.1 110.7 30.3 110.8 30.5 110.8 C 31 110.8 31.5 110.7 32.1 110.5 C 33.6 110.2 35.2 110 36.8 110.2 C 37.1 110.2 37.4 110.2 37.8 110.4 C 38.1 110.5 38.2 110.8 38.2 111.2 L 34.4 111.7 C 34.2 111.7 33.9 111.8 33.6 112 C 33.3 112.2 33.3 112.5 33.5 112.7 C 33.6 112.8 33.6 112.8 33.8 112.9 C 34.2 113.3 34.2 113.9 33.8 114.2 C 33.6 114.2 33.5 114.3 33.4 114.3 C 33.3 114.5 33.5 114.8 33.6 115.1 C 33.6 115.5 33.4 115.8 33.1 116 C 32.8 116.2 32.5 116.3 32.1 116.3 C 31.3 116.5 30.6 116.8 30 117.2 C 29.6 117.2 29.5 117.4 29.3 117.6 C 29.2 117.9 29.3 118.2 29.4 118.6 L 30.4 121.3 C 30.6 121.7 30.7 122.1 30.9 122.5 C 31.2 123 31.4 123.5 31.8 124 C 32 124.5 32.2 125.1 32.4 125.5 C 32.9 126.8 33.9 127.7 34.1 129.2 Z" fill="#ee8e9e" style=""/>
    <rect x="68.3" y="111.9" width="11.8" height="11.5" fill="url(#fa251bcb-f561-47ff-8b25-b5a12635a0f6)" style=""/>
    <rect x="68.4" y="112.1" width="11.4" height="11.1" fill="#7cfcff" style=""/>
    <path d="M 77.9 111.2 C 77.7 111.4 77.6 111.6 77.5 111.8 C 77.5 111.9 77.5 112.1 77.6 112.1 C 77.6 112.1 77.7 112.1 77.8 112.1 C 78 112.1 78.3 111.9 78.5 111.8 C 78.4 111.8 78.3 111.9 78.3 111.9 C 78.2 112 78.2 112.1 78.2 112.2 C 78.3 112.3 78.4 112.3 78.5 112.3 C 78.8 112.4 79.2 112.4 79.6 112.3 C 79.5 112.4 79.2 112.4 79.1 112.5 C 78.9 112.6 78.9 112.8 78.9 113.1 C 78.9 113.2 78.9 113.2 79 113.3 C 79 113.3 79 113.3 79.1 113.3 C 79.5 113.4 79.8 113.4 80.2 113.3 C 80.3 113.3 80.5 113.2 80.6 113.1 C 80.6 112.8 80.6 112.6 80.5 112.5 C 80.3 112.1 80.2 111.7 80.2 111.3 C 80.2 111.2 80.2 111.1 80.2 111.1 C 80.1 110.9 80.1 110.8 80 110.8 C 79.6 110.6 79.1 110.4 78.7 110.6 C 78.4 110.7 78.1 110.9 77.9 111.2 Z" fill="#ee8e9e" style=""/>
  </g>
</svg>