<?xml version="1.0" encoding="utf-8"?>
<svg viewBox="0 0 288 225" width="288px" height="225px" xmlns="http://www.w3.org/2000/svg" xmlns:xlink="http://www.w3.org/1999/xlink">
  <defs>
    <linearGradient id="cc82a564-ea96-4f3a-b817-d04de3d3185f" x1="875.04" y1="475.49" x2="303.77" y2="474.73" gradientTransform="matrix(0, 1, -1.02, 0, 1081.62, -103.54)" gradientUnits="userSpaceOnUse">
      <stop offset="0" stop-color="gray" stop-opacity="0.25"/>
      <stop offset="0.54" stop-color="gray" stop-opacity="0.12"/>
      <stop offset="1" stop-color="gray" stop-opacity="0.1"/>
    </linearGradient>
    <linearGradient id="e2d916eb-0c16-4978-ba1c-6a4f2feb782d" x1="590.41" y1="841.63" x2="590.41" y2="111.52" gradientTransform="matrix(0, 0.295475, -0.301383, 0, 319.829844, -30.395413)" gradientUnits="userSpaceOnUse">
      <stop offset="0" stop-opacity="0.09"/>
      <stop offset="0.55" stop-opacity="0.07"/>
      <stop offset="1" stop-opacity="0.02"/>
    </linearGradient>
    <linearGradient id="7dc82f8a-aae8-4c14-8443-a0bee5c82ac4" x1="837.64" y1="295.46" x2="837.64" y2="83.19" gradientTransform="matrix(1, 0, 0, 1, 0, 0)" xlink:href="#cc82a564-ea96-4f3a-b817-d04de3d3185f"/>
    <linearGradient id="10911ca7-360a-4a17-aa6c-ba55de6df86c" x1="305.44" y1="442.78" x2="305.44" y2="230.5" gradientTransform="matrix(1, 0, 0, 1, 0, 0)" xlink:href="#cc82a564-ea96-4f3a-b817-d04de3d3185f"/>
    <linearGradient id="b1d6e2ae-fbc3-4669-9109-ab786db17612" x1="-537.55" y1="760.23" x2="-537.55" y2="547.95" gradientTransform="matrix(-1, 0, 0, 1, 48, 0)" xlink:href="#cc82a564-ea96-4f3a-b817-d04de3d3185f"/>
    <linearGradient id="014d2d59-4ea0-44d4-9011-1415ae1e0169" x1="137.34" y1="416.18" x2="137.34" y2="343.15" gradientTransform="matrix(1, 0, 0, 1, 0, 0)" xlink:href="#cc82a564-ea96-4f3a-b817-d04de3d3185f"/>
    <linearGradient id="3edc3864-c137-45a8-b4cb-910029123495" x1="677.83" y1="259.53" x2="677.83" y2="186.5" gradientTransform="matrix(1, 0, 0, 1, 0, 0)" xlink:href="#cc82a564-ea96-4f3a-b817-d04de3d3185f"/>
    <linearGradient id="526052fb-0a4d-4689-9c8f-871db821c2c2" x1="425.74" y1="733.63" x2="425.74" y2="660.6" gradientTransform="matrix(1, 0, 0, 1, 0, 0)" xlink:href="#cc82a564-ea96-4f3a-b817-d04de3d3185f"/>
  </defs>
  <g opacity="0.5" transform="matrix(0.295475, 0, 0, 0.295475, 10.257947, 5.237259)" style="">
    <path d="M163.68,752.21,162.94,222a20,20,0,0,1,20-20l833.41-1.11a20,20,0,0,1,20,20l.73,530.21a20,20,0,0,1-20,20l-833.41,1.11A20,20,0,0,1,163.68,752.21Z" transform="translate(-162.94 -83.19)" fill="url(#cc82a564-ea96-4f3a-b817-d04de3d3185f)"/>
  </g>
  <rect x="67.3" y="71.3" width="219" height="145.6" transform="matrix(0.999999, -0.001396, 0.001396, 0.999999, -38.087509, -19.097986)" fill="url(#e2d916eb-0c16-4978-ba1c-6a4f2feb782d)" style=""/>
  <rect x="53.3" y="64.6" width="249.1" height="158.3" rx="3.7" ry="3.7" transform="matrix(0.999999, -0.001396, 0.001396, 0.999999, -38.084557, -19.097986)" fill="#fff" style=""/>
  <rect x="110.5" y="39.6" width="136.6" height="209" transform="matrix(0, 1, -1, 0, 284.750366, -54.362797)" fill="#2681f9" opacity="0.2" style=""/>
  <ellipse cx="25.9" cy="125.3" rx="5.8" ry="5.7" fill="#dbdbdb" style=""/>
  <ellipse cx="254.1" cy="101.3" rx="2" ry="1.9" fill="#dbdbdb" style=""/>
  <rect x="280.3" y="140.9" width="24.4" height="2" rx="0.2" ry="0.2" transform="matrix(0.001396, 0.999999, -0.999999, 0.001396, 396.082092, -170.274323)" fill="#dbdbdb" style=""/>
  <g opacity="0.5" transform="matrix(0.295475, 0, 0, 0.295475, 10.257947, 5.237259)" style="">
    <path d="M943.46,189A105.82,105.82,0,1,0,778.6,276.83l.07.47a36.22,36.22,0,0,0,12,7.64l.14-.47c5,4.25,25.81,11.05,49.79,11h.52c15.18,0,31.66-2.68,46.16-10.52,0,0,.13-.28.33-.8a37.7,37.7,0,0,0,10-6.83q.09-.61.17-1.2A105.7,105.7,0,0,0,943.46,189Z" transform="translate(-162.94 -83.19)" fill="url(#7dc82f8a-aae8-4c14-8443-a0bee5c82ac4)"/>
  </g>
  <circle cx="209.5" cy="36.5" r="30.3" fill="#f5f5f5" style=""/>
  <path d="M 197.9 49 C 197.9 49 190.7 49.6 192.7 62.7 C 193.6 63.6 194.7 64.4 196.1 64.9 L 200.1 51.3 Z" fill="#fda57d" style=""/>
  <path d="M 221.4 49 C 221.4 49 228.6 49.6 226.7 62.7 C 225.7 63.6 224.6 64.4 223.2 64.9 L 219.2 51.3 Z" fill="#fda57d" style=""/>
  <path d="M 198.1 27.4 C 198.1 27.4 194.7 37.4 193 36.5 C 193 36.5 211 52.1 227 36.5 C 227 36.5 224.3 31.5 220.1 27.4 Z" fill="#333" style=""/>
  <circle cx="209.8" r="13.4" fill="#333" style="" cy="26.5"/>
  <path d="M 221.3 49 L 197.8 49 L 195.6 58.5 C 195.6 58.5 194.3 62.7 195.9 64.6 C 197.6 66.7 212.5 70.9 223.5 64.9 C 224.4 62.4 224.6 59.7 223.7 57.2 C 222.5 52.8 223.5 56.8 223.5 56.8 Z" opacity="0.1" style=""/>
  <path d="M 221.6 49 L 198.1 49 L 195.9 58.5 C 195.9 58.5 194.6 62.7 196.3 64.6 C 197.8 66.7 212.8 70.9 223.7 64.9 C 224.7 62.4 224.9 59.7 224.1 57.2 C 222.9 52.8 223.7 56.8 223.7 56.8 Z" opacity="0.1" style=""/>
  <path d="M 221.4 49 L 197.9 49 L 195.7 58.5 C 195.7 58.5 194.4 62.7 196.1 64.6 C 197.6 66.7 212.7 70.9 223.6 64.9 C 224.6 62.4 224.7 59.7 223.9 57.2 C 222.5 52.8 223.6 56.8 223.6 56.8 Z" fill="#2681f9" style=""/>
  <path d="M 205.1 41.2 L 214.5 41.2 C 214.5 41.2 214.5 41.2 214.5 41.2 L 214.5 49 C 214.5 51.4 212.6 53.4 210 53.4 L 209.6 53.4 C 207.2 53.4 205.1 51.4 205.1 49 L 205.1 41.2 C 205.1 41.2 205.1 41.2 205.1 41.2 Z" opacity="0.1" style=""/>
  <path d="M 205.1 40.9 L 214.5 40.9 C 214.5 40.9 214.5 40.9 214.5 40.9 L 214.5 48.6 C 214.5 51.1 212.6 53.1 210 53.1 L 209.6 53.1 C 207.2 53.1 205.1 51.1 205.1 48.6 L 205.1 40.9 C 205.1 40.9 205.1 40.9 205.1 40.9 Z" fill="#fda57d" style=""/>
  <path d="M 205.2 42.2 C 208.2 43.4 211.5 43.4 214.5 42.3 L 214.5 41.1 L 205.2 41.1 Z" opacity="0.1" style=""/>
  <circle cx="209.8" cy="29.4" r="13.4" fill="#fda57d" style=""/>
  <path d="M 197 24.2 L 222.5 24.2 C 222.5 24.2 220.4 14 210.7 14.6 C 201.2 15.3 197 24.2 197 24.2 Z" fill="#333" style=""/>
  <ellipse cx="196.7" cy="28.8" rx="1.3" ry="2.3" fill="#fda57d" style=""/>
  <ellipse cx="222.9" cy="28.8" rx="1.3" ry="2.3" fill="#fda57d" style=""/>
  <path d="M 197 24.7 L 222.5 24.7 C 222.5 24.7 220.4 14.3 210.7 14.9 C 201.2 15.5 197 24.7 197 24.7 Z" opacity="0.1" style=""/>
  <g opacity="0.5" transform="matrix(0.295475, 0, 0, 0.295475, 10.257947, 5.237259)" style="">
    <path d="M411.26,336.32a105.82,105.82,0,1,0-164.85,87.83l.07.47a36.22,36.22,0,0,0,12,7.64l.14-.47c5,4.25,25.81,11.05,49.79,11h.52c15.18,0,31.66-2.68,46.16-10.52,0,0,.13-.28.33-.8a37.7,37.7,0,0,0,10-6.83q.09-.61.17-1.2A105.7,105.7,0,0,0,411.26,336.32Z" transform="translate(-162.94 -83.19)" fill="url(#10911ca7-360a-4a17-aa6c-ba55de6df86c)"/>
  </g>
  <circle cx="52.3" cy="80" r="30.3" fill="#f5f5f5" style=""/>
  <path d="M 39.1 91.9 C 39.1 91.9 32 92.5 33.9 105.7 C 34.8 106.7 36 107.4 37.3 107.8 L 41.3 94.1 Z" fill="#2681f9" style=""/>
  <path d="M 62.6 91.9 C 62.6 91.9 69.8 92.5 68 105.7 C 67 106.7 65.7 107.4 64.5 107.8 L 60.4 94.1 Z" fill="#2681f9" style=""/>
  <circle cx="51" cy="69.4" r="13.4" fill="#333" style=""/>
  <path d="M 62.4 91.9 L 39 91.9 L 36.8 101.2 C 36.8 101.2 35.5 105.7 37 107.6 C 38.7 109.4 53.7 113.8 64.7 107.8 C 65.6 105.4 65.7 102.7 65 100 C 63.7 95.7 64.7 99.7 64.7 99.7 Z" fill="#4d8af0" style=""/>
  <path d="M 62.7 91.9 L 39.3 91.9 L 37 101.2 C 37 101.2 35.8 105.7 37.4 107.6 C 39 109.4 54 113.8 65 107.8 C 65.9 105.4 66 102.7 65.3 100 C 64 95.7 65 99.7 65 99.7 Z" fill="#4d8af0" style=""/>
  <path d="M 62.6 91.9 L 39.1 91.9 L 37 101.2 C 37 101.2 35.7 105.7 37.3 107.6 C 38.9 109.4 53.8 113.8 64.8 107.8 C 65.7 105.4 65.8 102.7 65.1 100 C 63.8 95.7 64.8 99.7 64.8 99.7 Z" fill="#2681f9" style=""/>
  <path d="M 46.3 84.2 L 55.7 84.2 C 55.7 84.2 55.7 84.2 55.7 84.2 L 55.7 91.8 C 55.7 94.3 53.7 96.3 51.3 96.3 L 50.9 96.3 C 48.4 96.3 46.3 94.3 46.3 91.8 L 46.3 84.2 C 46.3 84.2 46.3 84.2 46.3 84.2 Z" opacity="0.1" style=""/>
  <path d="M 46.3 83.7 L 55.7 83.7 C 55.7 83.7 55.7 83.7 55.7 83.7 L 55.7 91.5 C 55.7 94 53.7 96 51.3 96 L 50.9 96 C 48.4 96 46.3 94 46.3 91.5 L 46.3 83.7 C 46.3 83.7 46.3 83.7 46.3 83.7 Z" fill="#fdb797" style=""/>
  <path d="M 46.4 85.2 C 49.3 86.3 52.8 86.3 55.7 85.2 L 55.7 84 L 46.4 84 Z" opacity="0.1" style=""/>
  <circle cx="51" cy="72.4" r="13.4" fill="#fdb797" style=""/>
  <path d="M 38.2 67.6 L 63.8 67.6 C 63.8 67.6 61.6 57.3 52 57.9 C 42.3 58.6 38.2 67.6 38.2 67.6 Z" opacity="0.1" style=""/>
  <path d="M 38.2 67.3 L 63.8 67.3 C 63.8 67.3 61.6 56.9 52 57.6 C 42.3 58.3 38.2 67.3 38.2 67.3 Z" fill="#333" style=""/>
  <ellipse cx="37.9" cy="71.7" rx="1.3" ry="2.3" fill="#fdb797" style=""/>
  <ellipse cx="64.2" cy="71.7" rx="1.3" ry="2.3" fill="#fdb797" style=""/>
  <path d="M 40.3 60.3 C 40.5 59.3 41.1 58.5 41.8 57.8 C 42.5 57.3 43.4 57.2 44.2 56.8 C 45.2 56.5 46.3 56 47.3 55.4 C 48.5 54.8 49.5 53.8 50.8 53.3 C 53 52.5 55.4 53 57.6 53.6 C 58.1 53.7 58.6 53.9 59.2 54.1 C 59.7 54.5 60.2 55.1 60.5 55.4 L 64.2 59.8 C 64.5 60.1 64.8 60.6 65 61 C 65.1 61.4 65.3 62 65.4 62.4 C 65.5 63.2 65.4 63.9 65 64.6 C 64.5 65.7 63.2 66.3 62 66.3 C 60.9 66.3 59.7 66 58.6 65.7 C 54.9 64.6 51.1 63.5 47.4 63.2 C 45.5 63 43.6 62.8 41.6 63 C 41.1 63.1 40.3 63.3 40 62.7 C 39.7 62.1 40.1 60.9 40.3 60.3 Z" fill="#333" style=""/>
  <g opacity="0.5" transform="matrix(0.295475, 0, 0, 0.295475, 10.257947, 5.237259)" style="">
    <path d="M479.73,653.77A105.82,105.82,0,1,1,644.58,741.6l-.07.47a36.22,36.22,0,0,1-12,7.64l-.14-.47c-5,4.25-25.81,11.05-49.79,11h-.52c-15.18,0-31.66-2.68-46.16-10.52,0,0-.13-.28-.33-.8a37.7,37.7,0,0,1-10-6.83q-.09-.61-.17-1.2A105.7,105.7,0,0,1,479.73,653.77Z" transform="translate(-162.94 -83.19)" fill="url(#b1d6e2ae-fbc3-4669-9109-ab786db17612)"/>
  </g>
  <circle cx="135" cy="173.9" r="30.3" fill="#f5f5f5" style=""/>
  <path d="M 123.1 185.3 C 123.1 185.3 116 186 117.9 199.1 C 118.8 200 120 200.9 121.3 201.4 L 125.4 187.6 Z" fill="#be7c5e" style=""/>
  <path d="M 146.5 185.3 C 146.5 185.3 153.8 186 152 199.1 C 150.9 200 149.7 200.9 148.5 201.4 L 144.4 187.6 Z" fill="#be7c5e" style=""/>
  <path d="M 123.4 163.8 C 123.4 163.8 122.9 165.4 122.1 167.4 C 120.5 171.6 122.3 187.2 126.5 188.8 C 131.1 190.8 137.2 191.9 143.5 189.6 C 149 187.6 150.7 169.7 146.8 165.3 C 146.3 164.8 145.9 164.4 145.4 163.8 Z" fill="#333" style=""/>
  <circle cx="135" cy="162.9" r="13.4" fill="#333" style=""/>
  <path d="M 146.5 185.3 L 123 185.3 L 120.9 194.9 C 120.9 194.9 119.6 199.1 121.2 201.1 C 122.8 203.1 137.7 207.3 148.7 201.4 C 149.6 198.9 149.7 196.1 149 193.5 C 147.7 189.2 148.7 193.2 148.7 193.2 Z" opacity="0.1" style=""/>
  <path d="M 146.8 185.3 L 123.3 185.3 L 121.2 194.9 C 121.2 194.9 119.9 199.1 121.5 201.1 C 123.1 203.1 138 207.3 149 201.4 C 149.9 198.9 150 196.1 149.4 193.5 C 148 189.2 149 193.2 149 193.2 Z" opacity="0.1" style=""/>
  <path d="M 146.5 185.3 L 123.1 185.3 L 121 194.9 C 121 194.9 119.7 199.1 121.3 201.1 C 122.9 203.1 137.9 207.3 148.8 201.4 C 149.7 198.9 149.8 196.1 149.1 193.5 C 147.8 189.2 148.8 193.2 148.8 193.2 Z" fill="#2681f9" style=""/>
  <path d="M 130.3 177.6 L 139.7 177.6 C 139.7 177.6 139.7 177.6 139.7 177.6 L 139.7 185.3 C 139.7 187.9 137.7 189.8 135.2 189.8 L 134.9 189.8 C 132.4 189.8 130.3 187.9 130.3 185.3 L 130.3 177.6 C 130.3 177.6 130.3 177.6 130.3 177.6 Z" opacity="0.1" style=""/>
  <path d="M 130.3 177.3 L 139.7 177.3 C 139.7 177.3 139.7 177.3 139.7 177.3 L 139.7 185 C 139.7 187.5 137.7 189.5 135.2 189.5 L 134.9 189.5 C 132.4 189.5 130.3 187.5 130.3 185 L 130.3 177.3 C 130.3 177.3 130.3 177.3 130.3 177.3 Z" fill="#be7c5e" style=""/>
  <path d="M 130.3 178.7 C 133.4 179.9 136.8 179.9 139.8 178.7 L 139.8 177.6 L 130.3 177.6 Z" opacity="0.1" style=""/>
  <circle cx="135" cy="165.8" r="13.4" fill="#be7c5e" style=""/>
  <path d="M 122.1 160.6 L 147.8 160.6 C 147.8 160.6 145.6 150.3 136 151 C 126.3 151.7 122.1 160.6 122.1 160.6 Z" fill="#333" style=""/>
  <ellipse cx="121.8" cy="165.2" rx="1.3" ry="2.3" fill="#be7c5e" style=""/>
  <ellipse cx="148.2" cy="165.2" rx="1.3" ry="2.3" fill="#be7c5e" style=""/>
  <path d="M 122.1 161.1 L 147.8 161.1 C 147.8 161.1 145.6 150.7 136 151.4 C 126.3 152 122.1 161.1 122.1 161.1 Z" opacity="0.1" style=""/>
  <polyline points="208.9 76.3 208.9 189.5 178.3 189.5" fill="none" stroke="#2681f9" stroke-miterlimit="10" stroke-width="2" stroke-dasharray="12" style=""/>
  <polyline points="51.6 117.6 51.6 189.5 95.7 189.5" fill="none" stroke="#2681f9" stroke-miterlimit="10" stroke-width="2" stroke-dasharray="12" style=""/>
  <g opacity="0.5" transform="matrix(0.295475, 0, 0, 0.295475, 10.257947, 5.237259)" style="">
    <circle cx="137.34" cy="379.66" r="36.52" fill="url(#014d2d59-4ea0-44d4-9011-1415ae1e0169)"/>
  </g>
  <circle cx="50.7" cy="117.4" r="10.1" fill="#69f0ae" style=""/>
  <polygon points="46.3 116 50.2 119.6 55.5 111.6 57.4 113.3 50.2 122.8 44.8 116.7 46.3 116" fill="#fff" style=""/>
  <g opacity="0.5" transform="matrix(0.295475, 0, 0, 0.295475, 10.257947, 5.237259)" style="">
    <circle cx="677.83" cy="223.01" r="36.52" fill="url(#3edc3864-c137-45a8-b4cb-910029123495)"/>
  </g>
  <circle cx="210.4" cy="71.2" r="10.1" fill="#69f0ae" style=""/>
  <polygon points="206 69.8 209.8 73.4 215.2 65.4 217.2 67 209.8 76.5 204.5 70.5 206 69.8" fill="#fff" style=""/>
  <g opacity="0.5" transform="matrix(0.295475, 0, 0, 0.295475, 10.257947, 5.237259)" style="">
    <circle cx="425.74" cy="697.11" r="36.52" fill="url(#526052fb-0a4d-4689-9c8f-871db821c2c2)"/>
  </g>
  <circle cx="136" cy="211.4" r="10.1" fill="#69f0ae" style=""/>
  <polygon points="131.5 210 135.4 213.3 140.8 205.5 142.7 207.1 135.4 216.5 129.9 210.6 131.5 210" fill="#fff" style=""/>
</svg>