<?xml version="1.0" encoding="utf-8"?>
<svg viewBox="0 0 288 225" width="288px" height="225px" xmlns="http://www.w3.org/2000/svg">
  <path d="M 40.6 222.9 L 40.1 222.8 C 45.5 198.6 59.2 176.6 78.7 160.9 C 142.6 109.2 238.7 142.3 257.1 222.5 L 256.6 222.6 C 245.1 171.9 200.7 136.6 148.6 136.6 C 97.3 136.6 51.9 172.9 40.6 222.9 Z" fill="#3f3d56" style=""/>
  <circle cx="110.7" cy="66.7" r="13.6" fill="#ff6584" style=""/>
  <path d="M 52.1 219.9 C 52.5 221.4 54 222.4 54 222.4 C 54 222.4 54.7 220.8 54.3 219.2 C 53.9 217.7 52.4 216.7 52.4 216.7 C 52.4 216.7 51.7 218.3 52.1 219.9 Z" fill="#3f3d56" style=""/>
  <path d="M 52.7 219.5 C 53.9 220.6 54 222.4 54 222.4 C 54 222.4 52.2 222.3 51.1 221.2 C 49.9 220.1 49.8 218.3 49.8 218.3 C 49.8 218.3 51.5 218.4 52.7 219.5 Z" fill="#f99426" style=""/>
  <path d="M 84.4 219.9 C 84.8 221.4 86.3 222.4 86.3 222.4 C 86.3 222.4 87 220.8 86.6 219.2 C 86.2 217.7 84.7 216.7 84.7 216.7 C 84.7 216.7 83.9 218.3 84.4 219.9 Z" fill="#3f3d56" style=""/>
  <path d="M 85 219.5 C 86.2 220.6 86.3 222.4 86.3 222.4 C 86.3 222.4 84.6 222.3 83.4 221.2 C 82.2 220.1 82.1 218.3 82.1 218.3 C 82.1 218.3 83.8 218.4 85 219.5 Z" fill="#f99426" style=""/>
  <polygon points="90.8 94.9 85.6 90.8 114.4 65.2 187 65.2 187 87.7 139.9 119.5 90.8 94.9" fill="#3f3d56" style=""/>
  <polygon points="200.2 79.6 200.2 65.8 190.6 65.8 190.6 69.2 187 65.2 163.4 90.8 154.3 97 140 201.2 161.5 222.8 211.6 222.8 211.6 91.8 200.2 79.6" fill="#ccc" style=""/>
  <rect x="85.6" y="90.8" width="77.8" height="132" fill="#f2f2f2" style=""/>
  <rect x="115.9" y="190.6" width="14.4" height="32.2" fill="#ccc" style=""/>
  <polygon points="100.5 199.7 100.5 194.6 94.3 194.6 94.3 199.7 100 199.7 100.5 199.7" fill="#3f3d56" style=""/>
  <polygon points="100 203.9 94.3 203.9 94.3 209 100.5 209 100.5 203.9 100 203.9" fill="#3f3d56" style=""/>
  <rect x="104.6" y="194.6" width="6.1" height="5.1" fill="#3f3d56" style=""/>
  <rect x="104.6" y="203.9" width="6.1" height="5.1" fill="#3f3d56" style=""/>
  <polygon points="142.5 199.7 142.5 194.6 136.3 194.6 136.3 199.7 142 199.7 142.5 199.7" fill="#3f3d56" style=""/>
  <polygon points="142 203.9 136.3 203.9 136.3 209 142.5 209 142.5 203.9 142 203.9" fill="#3f3d56" style=""/>
  <rect x="146.5" y="194.6" width="6.1" height="5.1" fill="#3f3d56" style=""/>
  <rect x="146.5" y="203.9" width="6.1" height="5.1" fill="#3f3d56" style=""/>
  <polygon points="185.5 97.4 185.5 92.3 179.3 92.3 179.3 97.4 184.9 97.4 185.5 97.4" fill="#3f3d56" style=""/>
  <polygon points="184.9 101.5 179.3 101.5 179.3 106.7 185.5 106.7 185.5 101.5 184.9 101.5" fill="#3f3d56" style=""/>
  <rect x="189.5" y="92.3" width="6.1" height="5.1" fill="#3f3d56" style=""/>
  <rect x="189.5" y="101.5" width="6.1" height="5.1" fill="#3f3d56" style=""/>
  <polygon points="185.5 126.1 185.5 121 179.3 121 179.3 126.1 184.9 126.1 185.5 126.1" fill="#3f3d56" style=""/>
  <polygon points="184.9 130.2 179.3 130.2 179.3 135.3 185.5 135.3 185.5 130.2 184.9 130.2" fill="#3f3d56" style=""/>
  <rect x="189.5" y="121" width="6.1" height="5.1" fill="#3f3d56" style=""/>
  <rect x="189.5" y="130.2" width="6.1" height="5.1" fill="#3f3d56" style=""/>
  <polygon points="185.5 154.7 185.5 149.6 179.3 149.6 179.3 154.7 184.9 154.7 185.5 154.7" fill="#3f3d56" style=""/>
  <polygon points="184.9 158.9 179.3 158.9 179.3 164 185.5 164 185.5 158.9 184.9 158.9" fill="#3f3d56" style=""/>
  <rect x="189.5" y="149.6" width="6.1" height="5.1" fill="#3f3d56" style=""/>
  <rect x="189.5" y="158.9" width="6.1" height="5.1" fill="#3f3d56" style=""/>
  <polygon points="185.5 183.4 185.5 178.3 179.3 178.3 179.3 183.4 184.9 183.4 185.5 183.4" fill="#3f3d56" style=""/>
  <polygon points="184.9 187.5 179.3 187.5 179.3 192.6 185.5 192.6 185.5 187.5 184.9 187.5" fill="#3f3d56" style=""/>
  <rect x="189.5" y="178.3" width="6.1" height="5.1" fill="#3f3d56" style=""/>
  <rect x="189.5" y="187.5" width="6.1" height="5.1" fill="#3f3d56" style=""/>
  <rect x="94.3" y="97.4" width="59.4" height="12.3" fill="#3f3d56" style=""/>
  <rect x="94.3" y="122" width="59.4" height="12.3" fill="#3f3d56" style=""/>
  <rect x="94.3" y="146.6" width="59.4" height="12.3" fill="#3f3d56" style=""/>
  <rect x="94.3" y="171.1" width="59.4" height="12.3" fill="#3f3d56" style=""/>
  <rect y="222.3" width="284.9" height="0.5" fill="#3f3d56" style="" x="6.2"/>
  <rect x="53.9" y="164.5" width="1.5" height="58.2" fill="#3f3d56" style=""/>
  <path d="M 69 171.8 C 69.1 192.2 54.7 208.7 54.7 208.7 C 54.7 208.7 40.2 192.3 40.1 171.9 C 40.1 151.6 54.4 135.1 54.4 135.1 C 54.4 135.1 68.9 151.5 69 171.8 Z" fill="#f99426" style=""/>
  <path d="M 69 171.8 C 69.1 192.2 54.7 208.7 54.7 208.7 C 54.7 208.7 40.2 192.3 40.1 171.9 C 40.1 151.6 54.4 135.1 54.4 135.1 C 54.4 135.1 68.9 151.5 69 171.8 Z" opacity="0.1" style=""/>
  <rect x="34.8" y="164.5" width="1.5" height="58.2" fill="#3f3d56" style=""/>
  <path d="M 49.8 171.8 C 49.9 192.2 35.6 208.7 35.6 208.7 C 35.6 208.7 21.1 192.3 21 171.9 C 21 151.6 35.2 135.1 35.2 135.1 C 35.2 135.1 49.7 151.5 49.8 171.8 Z" fill="#f99426" style=""/>
  <path d="M 243.1 90.7 C 231.5 90.8 222.1 90.9 222.1 90.9 C 222.1 90.9 233.2 76.1 243.1 81.5 C 252.8 87.1 264.1 90.7 264.1 90.7 C 264.1 90.7 254.7 90.6 243.1 90.7 Z" fill="#f2f2f2" style=""/>
  <path d="M 49.9 119.3 C 38.3 119.4 28.9 119.5 28.9 119.5 C 28.9 119.5 40.1 104.6 49.9 110.1 C 59.6 115.7 70.9 119.3 70.9 119.3 C 70.9 119.3 61.5 119.2 49.9 119.3 Z" fill="#f2f2f2" style=""/>
  <path d="M 92 59.6 C 80.4 59.7 71 59.9 71 59.9 C 71 59.9 82.2 45 92 50.5 C 101.7 56 113 59.7 113 59.7 C 113 59.7 103.6 59.6 92 59.6 Z" fill="#f2f2f2" style=""/>
  <rect x="265.5" y="164.5" width="1.5" height="58.2" fill="#3f3d56" style=""/>
  <path d="M 280.5 171.8 C 280.6 192.2 266.3 208.7 266.3 208.7 C 266.3 208.7 251.9 192.3 251.8 171.9 C 251.7 151.6 266 135.1 266 135.1 C 266 135.1 280.4 151.5 280.5 171.8 Z" fill="#f99426" style=""/>
  <polygon points="212.8 186.5 227.7 186.5 227.7 182.9 235.9 182.9 235.9 186.5 251.2 186.5 251.2 202.4 235.9 202.4 235.9 222.3 227.7 222.3 227.7 202.4 212.8 202.4 205.1 193.7 212.8 186.5" fill="#3f3d56" style=""/>
</svg>